/* XPM */
static char * WaterFall1_transparency_xpm[] = {
"128 128 31 1",
" 	c #00FF00",
".	c #549091",
"+	c #65A2A3",
"@	c #72ABAC",
"#	c #7CB9BA",
"$	c #8CC3B6",
"%	c #679C9F",
"&	c #48707C",
"*	c #65A0A1",
"=	c #599293",
"-	c #6EA6A8",
";	c #4D7F93",
">	c #5E9C9D",
",	c #76B2B4",
"'	c #457487",
")	c #67A0A1",
"!	c #3E697A",
"~	c #619A9B",
"{	c #7ABAAB",
"]	c #6BA0A4",
"^	c #68A2A3",
"/	c #408081",
"(	c #4D8C8D",
"_	c #82BAAD",
":	c #49727E",
"<	c #527B88",
"[	c #547D8A",
"}	c #5B9A9B",
"|	c #73A89D",
"1	c #81B6AC",
"2	c #569195",
"                                   .+@@#@@@@@@@##@@@@@@@@@@@@@@@@@@@@@@@@@@@@@@                                                 ",
"                                   .+@@#@@@@@@@@#@@@@@@@@@@@@@@@@@@#@@@@@@@@@@@                                                 ",
"                                   .+@@#@@@@@@@@#@@@@@@@@@@@#@@@@@@#@@@@@@@@@@@                                                 ",
"                                   .+@@#@@@#@@@@#@@@@@@#@@@@#@@@@@@@@@@@#@@@@@@@                                                ",
"                                   .+@@#@@@#@@@@@@@@@@@#@@@@#@@@@@@@@@@@#@@@@@@@                                                ",
"                                   .+@@@@@@##@@@@@#@@@##@@@@##@@@@@@@@@@@#@@@@@@                                                ",
"                                   .+@@@@@@##@@@@@#@@@##@@@@@#@@@@@@@@@@@#@@@@@@                                                ",
"                                   .+@@@@@@##@@@@@#@@@##@@@@@#@@@@@#@@@@@#@@@@@@                                                ",
"                                    .+@@@@@##@@@@@#@@@##@@@@@#@@@@@#@@@@@#@@@@@@@                                               ",
"                                    .+@@@@@##@@@@@#@@@##@@@@@@@@@@@#@@@@@#@@@@@@@                                               ",
"                                    .+@@@@@@#@@@@##@@@##@@@@@@@@@@@##@@@@#@@@@@@@                                               ",
"                                    .+@@@@@@#@@@@##@@@#@@@@@@@@@@@@##@@@@##@@@@@@                                               ",
"                                    .+@@@@@@#@@@@##@@@#@@@@@@@@@@@@##@@@@@#@@@@@@                                               ",
"                                    .+@@@@@@#@@@@##@@@@@@@@@@@@@@@@##@@@@@#@@@@@@@                                              ",
"                                    .+@@@@@@@@@@@##@@@@@@@@@@@@@@@@@#@@@@@@@@@@@@@                                              ",
"                                    .+@@@#@@@@@@@##@@@@@@@@@@@@@@@@@#@@@@@@@@@@@@@                                              ",
"                                    .+@@@#@@@@@@@#@@@@@@@@@#@@@@@@@@#@@@@@@@@#@@@@                                              ",
"                                    .+@@@#@@@@@@@#@@@@@@@@@#@@@@@@@@#@@@@@@@@##@@@                                              ",
"                                    .+@@@#@@@@@@@#@@@@@@@@@#@@@@@@@@##@@@@@@@@#@@@                                              ",
"                                    .+@@@#@@@@@@@#@@@@@@@@@#@@@@@@@@@#@@@@@@@@#@@@                                              ",
"                                    .+@@@#@@@@@@@@@@@@@@@@@#@@@@@@@@@@@@@@@@@@#@@@                                              ",
"                                    .+@@@#@@@@@@@@@@@@@@@@@#@@@@@@@@@@@@@$@@@@@@@@                                              ",
"                                    %+@@@#@@@@@@@@@@@@@@@@@##@@@@@@@@@@@$$$@@@@@@@                                              ",
"                                    &+@@@@@@$@@@@@@@@@@@@@@@@@@@@@@@@@@$$$$@@@@@@@@                                             ",
"                                    *=-@@@@@$$$$@@@@@@@@;@@@@@@@@@@@@@@$>>$$@;>>@@$>                                            ",
"                                    >>>-@@>$$>>$>>@@@@>>;;@@>>>>>>@@@@$>>>>$@;>>$$>>                                            ",
"                                    .>>>>>>$;>>>>>@>>>>>;>>@>>>>>>@>>>>>>>>$>;>>,,>>                                            ",
"                                    ...>>>>>;>>>>>>>>>>>>>>>>>>>>>>>>>>>>>>>>;>>,>>>                                            ",
"                                    .....>>>;>>>>>>>>>>>>>>>>>>>>>>>>>>>>>>>>;>>,>>>                                            ",
"                                    .......>;>>>>>>>>>>>>>>>>>>>>>>>>>>>>>>>>;>>,>>>                                            ",
"                                    ........';>>>>>>>>>>>>>>>>>>>>>>>>>>>>>>>;>>,>>>                                            ",
"                                    ........''>>>>>>>>>>>>>>>>>>>>>>>>>>>>>>>;>>>>>>                                            ",
"                                    ........''..>>>>>>>>>>>>>>>>>>>;>>>>,>>>>;>>>>>>                                            ",
"                                    ........''....>>>>>>>,>>,>>>>>>;>>>>,>>>>;>>>>>>                                            ",
"                                    ........''...)..>>>>>,>>,>>>>>>;>>>>,>>>>;>>>>>>                                            ",
"                                    ........''...)....>>>,>>>,>>>>>;>>,>,,>>>;>>>>>>                                            ",
"                                    .........'...)......>,,>>>>>>>>;>>,>,,>>>;>>>>>>                                            ",
"                                    .........'...).......),>>>>>>>>;>>,>,,>>>;>>>>>>                                            ",
"                                    .........'...).......))>>>>>>>;;>>>>,,>>>;>>>>>>                                            ",
"                                    .........'...)........).>>>>>>;;>>>>,,>>>;>>>>>>                                            ",
"                                    .........'...)........)...>>>>;;>>>>>,>>;;>>>>>>                                            ",
"                                    .........'............).....>>;;>>>>>,>>;;>>>>>>                                            ",
"                                    .........'............).......';>>>>>>>>;;>>>>>>                                            ",
"                                    ......)..'....................''>>>>>>>>;;>>>>>>                                            ",
"                                     .....)..'....................''>>>>>>>>;;>>>>>>                                            ",
"                                     .....)..'....................''.>>>>>>>;;>>>>>>                                            ",
"                                     .....)..'....................''...>>>>>;;>>>>>>                                            ",
"                                     ....))..'....................''.....>>>;;>>>>>>                                            ",
"                                     ....)).......................'........>';>>>>>>                                            ",
"                                     ....)).......................'.........'''>>>>>                                            ",
"                                     ....)).......................'.........'''>>>>>                                            ",
"                                     ....)).......................'.........'''>>>>>                                            ",
"                                     ....)).......................'.........'''>>>>>                                            ",
"                                     ....)..................................'''..>>>                                            ",
"                                     ....).............................)....'''....>                                            ",
"                                     ....)........................)....)....'''.....                                            ",
"                                     .............................)....).....''.....                                            ",
"                                     .......................).....)....).....''.....                                            ",
"                                     .......................).....))...).....''.....                                            ",
"                                     ................'......).....))...).....''.)...                                            ",
"                                     .......)........'......).....))...))....''.)...                                            ",
"                                     .......)........'.....)).....))...))....''.)...                                            ",
"                                     .......)........'.....)).....))...))....''.)...                                            ",
"                                     .......)........'.....))......)...))....''.)...                                            ",
"                                     .......)........'.....))..........)))...''.)...                                            ",
"                                     .......)).......'.....))...........))...''.)...                                            ",
"                                     .......)).......'.....))...........))...''.)...                                            ",
"                                     .......)).......''....))...........))...''.)...                                            ",
"                                     .......)).......''....))...........))...''.)...                                            ",
"                                      .......).......''....))...........))...''.....                                            ",
"                                      .......).......''....))...........))...''.....                                            ",
"                                      .......).......''....)............))...''.....                                            ",
"                                      ...............''....)............))...''.....                                            ",
"                                      ..............'''....).............)...''.....                                            ",
"                                      ..............'''..................)...''.....                                            ",
"                                      ..............'''..................)...''.....                                            ",
"                                      ..............'''......................''.....                                            ",
"                                      ..............'''......................''.....                                            ",
"                                      .....)........'''......................''.....                                            ",
"                                      .....)........'''......................''.....                                            ",
"                                      .....)........'''......................''.....                                            ",
"                                      .....)).......'''........!.............''.....                                            ",
"                                      .....)).......'''........!....'........''.....                                            ",
"                                      .....)).......'''........!....'........''.....                                            ",
"                                      .....))......''''........!....'........''.....                                            ",
"                                      .....').)....''''........!....'........''.....                                            ",
"                                      .....').))...''''.....)).!....'...)...)''.....                                            ",
"                                      ....'')......''''.....)).!!...'..)))..)''.....                                            ",
"                                      ....'')......''''..))....!!...'...)....''.)...                                            ",
"                                      ..).''.......'~~'..){)...!!...'.....!..''..)..                                            ",
"                                      .]))''...)...'~''...))...!!.^^^^....!..''.....                                            ",
"                                      /().''.......''''........!^^^^^^^^^.!..'^^^...                                            ",
"                                      //..''..................^^^^^^^^^^^^..^^^^^...                                            ",
"                                      ///.''.^^^^....^^^.....^^^^^^^^^^^^^^^^^^^^^^.                                            ",
"                                      ////^^^^^^^^..^^^^^///^^^^^^^^^^^^^^^^^^^^^^^.                                            ",
"                                      ///^^^^^^^^^^^^^_^^//^^^^^^^___^^^^^^^^^___^^^                                            ",
"                                      /(^^^^^^^^^^^^^__^^^^^^^^^______^^^^^^___$$$@;                                            ",
"                                      &^^^^^@@@@^^^^^__^^^^^^^^____$$$@@@@@@$$$$$$@;                                            ",
"                                      :^^^^^____^^^^^^^^@@@@@@@$$$$$$$@@@@@@$$$$$@@@                                            ",
"                                      :^^^^____$$@@@@@@@@@@@@@@$$$$$$$@@@@@@@$$$@@@@                                            ",
"                                      &^@@@$$$$$$$@@@@@@@@.@@@@@@@@@@@@@@@@@@@@@@@@.                                            ",
"                                      <]@@@$$$$$$$@@@@@@@@.@@@@@@@@@@@@@@@.@@@@@@@@.                                            ",
"                                      <]@@@$$$$$$$@@@@@@@...@@@@@@@@@@@@@...@@@@@...                                            ",
"                                      <]@@@@$$$$@@@@@@@@..................@.........                                            ",
"                                      <.@@@@@@@@@@@@@@@...@..............@@.........                                            ",
"                                      <..@@@@@@@@@@@@...@@@@.....@@....@...........@                                            ",
"                                      <.....@@@@@......@@@@...@......@@@@@@@@....@@@                                            ",
"                                      [.@..............@@@...@@@@@@@@@@@@@@@@@@@@@@@                                            ",
"                                      [.@@@................@@@@@@@@@@@@@@@@@@@@@@@$$                                            ",
"                                      [...@........@@.....@@@@@@@@@@@@@@@@@@@@@@@@$$                                            ",
"                                      [@..........@@@@@@@@@@@@@@$$@@@@$@@@@@@@@@$$$$                                            ",
"                                      }@@......@@@@@@@@@@@@@@@@$$$$@@@$$$$$$$$$$$$$$                                            ",
"                                      |1@@@@@@@@@@@@@@@@@@@@@$$$$$@@@@@$$$$$$$$$$@@@                                            ",
"                                      |1$@@@@@@@@@@$$@@@@$$$$$$@@@@@@@@@@$$$$$$@@@@@                                            ",
"                                      |1$$$@@@@@@$$$@@@@@@$$$$@@@@@@@@@@@@@@@@@@@@@@                                            ",
"                                      2]$$$$$$@$$$@@@@@@@@@@@@@@@@@@@@@@@@@@@@@@@@@@@                                           ",
"                                      ]@@@$$$$$$$$@@@@@@@@@@@@@@@@@@@@@@@@@@@@@@@@@@@                                           ",
"                                      -@@@@@@@$$@@@@@@@@@@@@@@@@@@@@@@@@@@@@@@@@@@@@@                                           ",
"                                      @@@@@@@@@@@@@@@@@@@@@@@@@@@$$@@@@@@@@@@@@@@@@@@@                                          ",
"                                     ]@@@@@@@@@@@@@@@@@@@@@@@@@@@$$$$@@@@@@@@@@@@@@@@@@                                         ",
"                                     ]@@@@@$@@@@@@@@@$$$$@@@@@@@@$$$$$$$$$@@@@@@@@@@@@@@@                                       ",
"                                    ]-@@@$$$@@@@@@$$$$$$@@@@@@@@@@$$$$$$$$$$$@@@@@$@@@@@@@@                                     ",
"                                   ]--@@@@@@@@@@@@$$$@@@@@@@@@@@@@@@@$$$$$$$$$@@@@$$$@@@@@@@@                                   ",
"                                  ]--@@@@@@@@@@@@@@@@@@@@@@@@@@@@@@@@@@@@@@@@@@@@@@@$$@@@@@@@@@                                 ",
"                                 ]--@@@@@@@@@@@@@@@@@@@@@@@@@@@@@@@@@@@@@@@@@@@@@@@@$$$@@@@@@@@@@                               ",
"                               ]]--@@@@@@@@@@@@@@@@@@@@@@@@@@@@@@@@@@@@@@@@@@@@@@@@@@@@@@@@@@@@@@@@                             ",
"                            ]]]]--@@@@@@@@@@@@@@@@@@@@@@@@@@@@@@@@@@@@@@@@@@@@@@@@@@@@@@@@@@@@@@@@@@@                           ",
"                          ]]]]]--@@@@@@@@@@@@@@@@@@@@@@@@@@@@@@@@@@@@@@@@@@@@@@@@@@@@@@@@@@@@@@@@@@@@@@@                        "};
