/* XPM */
static char * WaterFall2_xpm[] = {
"128 127 27 1",
" 	c None",
".	c #549091",
"+	c #65A2A3",
"@	c #72ABAC",
"#	c #7CB9BA",
"$	c #8CC3B6",
"%	c #679C9F",
"&	c #48707C",
"*	c #65A0A1",
"=	c #599293",
"-	c #6EA6A8",
";	c #4D7F93",
">	c #5E9C9D",
",	c #457487",
"'	c #76B2B4",
")	c #67A0A1",
"!	c #3E697A",
"~	c #619A9B",
"{	c #68A2A3",
"]	c #6BA0A4",
"^	c #408081",
"/	c #4D8C8D",
"(	c #82BAAD",
"_	c #49727E",
":	c #527B88",
"<	c #547D8A",
"[	c #5B9A9B",
"                                   .+@@##@@@@@@#@@@@@@@@@@@@@@@@@@@@@@@@@@@#@@@                                                 ",
"                                   .+@@##@@@@@@#@@@@@@@@@@@@#@@@@@@@@@@@@@@#@@@                                                 ",
"                                   .+@@##@@@@@@##@@@@@@@@@@@#@@@@@@@@@@@#@@@@@@@                                                ",
"                                   .+@@##@@@@@@##@@@@@@@@@@@#@@@@@@@@@@@#@@@@@@@                                                ",
"                                   .+@@#@@@@@@@@#@@@@@@@@@@@#@@@@@@#@@@@#@@@@@@@                                                ",
"                                   .+@@#@@@@@@@@#@@@@@@#@@@@##@@@@@#@@@@#@@@@@@@                                                ",
"                                   .+@@#@@@@@@@@#@@@@@@#@@@@##@@@@@#@@@@#@@@@@@@                                                ",
"                                    .+@#@@@#@@@@#@@@@@@#@@@@@#@@@@@#@@@@#@@@@@@@@                                               ",
"                                    .+@@@@@#@@@@@@#@@@@#@@@@@#@@@@@@@@@@@@@@@@@@@                                               ",
"                                    .+@@@@@##@@@@@#@@@@#@@@@@#@@@@@@@@@@@@@@@@@@@                                               ",
"                                    .+@@@@@##@@@@@#@@@@#@@@@@#@@@@@#@@@@@#@@@@@@@                                               ",
"                                    .+@@@@@##@@@@@#@@@@##@@@@@@@@@@#@@@@@#@@@@@@@                                               ",
"                                    .+@@@@@##@@@@@#@@@@##@@@@@@@@@@#@@@@@#@@@@@@@@                                              ",
"                                    .+@@@@@##@@@@@#@@@@##@@@@@@@@@@#@@@@@#@@@@@@@@                                              ",
"                                    .+@@@@@@#@@@@##@@@@@#@@@@@@@@@@#@@@@@##@@@@@@@                                              ",
"                                    .+@@@@@@#@@@@##@@@@@#@@@@@@@@@@##@@@@##@@#@@@@                                              ",
"                                    .+@@@@@@#@@@@##@@@@@#@@@@@@@@@@##@@@@@#@@#@@@@                                              ",
"                                    .+@@@@@@@@@@@##@@@@@#@@@@@@@@@@@#@@@@@#@@#@@@@                                              ",
"                                    .+@@@@@@@@@@@#@@@@@@@@@@@@@@@@@@#@@@@@#@@#@@@@                                              ",
"                                    .+@@@@@@@@@@@#@@@@@@@@@#@@@@@@@@##@@@@#@@##@@@                                              ",
"                                    .+@@@#@@@@@@@#@@@@@@@@@#@@@@@@@@##@@@$@@@@#@@@                                              ",
"                                    %+@@@#@@$@@@@#@@@@@@@@@##@@@@@@@@#@@$$$@@@#@@@                                              ",
"                                    &+@@@#@@$$$@@@@@@@@@@@@##@@@@@@@@#@$$$$@@@#@@@@                                             ",
"                                    *=-@@#@@$$$$@@@@@@@@;@@#@@@@@@@@@@@$>>$$@;>>@@$>                                            ",
"                                    >>>-@#>$$>>$>>@@@@>>;;@#>>>>>>@@@@$>>>>$@;>>$$>>                                            ",
"                                    .>>>>>>@>>>>>>@>>>>>>>;@>>>>>>@>>>>>>>>$>>>>>>>>                                            ",
"                                    ...>>>>>>>>>>>>>>>>>>>>>>>>>>>>>>>>>>>>>>>>>>>>>                                            ",
"                                    .....>>>;>>>>>>>>>>>>>>>>>>>>>>>>>>>>>>>>>>>>>>>                                            ",
"                                    .......>;>>>>>>>>>>>>>>>>>>>>>>>>>>>>>>>>>>>>>>>                                            ",
"                                    ........,>>>>>>>>>>>>>>>>>>>>>>>>>>>>>>>>>>>''>>                                            ",
"                                    ........,,>>>>>>>>>>>>>>>>>>>>>>>>>>>>>>>>>>'>>>                                            ",
"                                    ........,,..>>>>>>>>>>>>>>>>>>;>>>>>>>>>>>>>'>>>                                            ",
"                                    ........,,....>>>>>>>>>>>>>>>>;>>>>>>>>>>;>>'>>>                                            ",
"                                    ........,,......>>>>>>>>>>>>>>;>>>>>>>>>>;>>'>>>                                            ",
"                                    ........,,........>>>>>>>>>>>>;>>>>>>>>>>;>>>>>>                                            ",
"                                    ........,,..........>>>>>>>>>>;>>>>>'>>>>;>>>>>>                                            ",
"                                    ........,,...........)>>'>>>>>;>>>>>'>>>>;>>>>>>                                            ",
"                                    ........,,...).......).>'>>>>>;>>>>>'>>>>;>>>>>>                                            ",
"                                    ........,,...).......)..>'>>>>;;>>'>''>>>;>>>>>>                                            ",
"                                    ........,,...).......))..>>>>>;;>>'>''>>>;>>>>>>                                            ",
"                                    ........,,...).......)).....>>;;>>'>''>>>;>>>>>>                                            ",
"                                    .........,...).......)).......,;>>>>''>>>;>>>>>>                                            ",
"                                    .............)........).......,,>>>>''>>>;>>>>>>                                            ",
"                                     ............)........)........,>>>>>'>>>;>>>>>>                                            ",
"                                     .....................)........,.>>>>'>>>;>>>>>>                                            ",
"                                     .....................)........,..>>>>>>>;>>>>>>                                            ",
"                                     .....)........................,.....>>>>;>>>>>>                                            ",
"                                     .....)........................,.......>>;>>>>>>                                            ",
"                                     .....)........................,........>,>>>>>>                                            ",
"                                     .....)........................,.........,>>>>>>                                            ",
"                                     ....))........................,.........,>>>>>>                                            ",
"                                     ....))........................,.........,.>>>>>                                            ",
"                                     ....))..................................,...>>>                                            ",
"                                     ....))..................................,.....>                                            ",
"                                     ....))..................................,......                                            ",
"                                     ....))..................................,......                                            ",
"                                     ....)...................................,......                                            ",
"                                     ....)...........,.................).....,......                                            ",
"                                     ....)...........,............)....).....,......                                            ",
"                                     ................,............)....).....,......                                            ",
"                                     ................,......).....)....).....,......                                            ",
"                                     ................,......).....))...).....,......                                            ",
"                                     ................,......).....))...).....,..)...                                            ",
"                                     .......)........,......).....))...))....,..)...                                            ",
"                                     .......).......,,.....)).....))...))....,..)...                                            ",
"                                     .......).......,,.....)).....))...))....,,.)...                                            ",
"                                     .......).......,,.....))......)...))....,,.)...                                            ",
"                                     .......).......,,.....))..........)))...,,.)...                                            ",
"                                      ......))......,,.....))...........))...,,.)...                                            ",
"                                      ......))......,,.....))...........))...,,.)...                                            ",
"                                      ......))......,,.....))...........))...,,.)...                                            ",
"                                      ......))......,,.....))...........))...,,.)...                                            ",
"                                      .......)......,,.....))...........))...,,.....                                            ",
"                                      .......)......,,.....))...........))...,,.....                                            ",
"                                      .......)......,,,....)............))...,,.....                                            ",
"                                      ..............,,,....)............))...,,.....                                            ",
"                                      ..............,,,....).............)...,,.....                                            ",
"                                      ..............,,,..................)...,,.....                                            ",
"                                      ..............,,,..................)...,,.....                                            ",
"                                      .............,,,,......................,,.....                                            ",
"                                      .............,,,,......................,,.....                                            ",
"                                      .....).......,,,,............,.........,,.....                                            ",
"                                      .....).......,,,,........!...,.........,,.....                                            ",
"                                      .....).......,,,,........!...,.........,,.....                                            ",
"                                      ....,.)......,,,,........!...,.........,,.....                                            ",
"                                      ....,.)......,,,,..))....!...,.........,,.....                                            ",
"                                      ....,.)......,,,,..))....!!...,........,,.....                                            ",
"                                      .)..,,).....~~,,,........!!...,..{.....,,.....                                            ",
"                                      ))).,,))....~,,,,........!!...,{{{..!).,,.....                                            ",
"                                      .]..,,)))....,,,,.)).....!!...{{....))),,.....                                            ",
"                                      ^/..,,)......,,,,.)))....!!.{{{{{{{.!).,......                                            ",
"                                      ^^..,,........,,,..))....!{{{{{{{{{{..{{{.....                                            ",
"                                      ^^^.,,......^^^^^......{{{{{{{{{{{{{{{{{{{{...                                            ",
"                                      ^^^^^...{{{{{{{{{^^^^^{{{{{{{{{{{{{{{{{{{{{{{.                                            ",
"                                      ^^^^^{{{{{{{{{{{({^^^{{{{{{{{{{{{{{{{{{{{{{{{{                                            ",
"                                      ^^^{{{{{{{{{{{{{{{{{{{{{{{(((((({{{{{{((($$$@;                                            ",
"                                      &{{{{{{{{{{{{{{{{{{{{{{{{(((($$$@@@@@@$$$$$$@;                                            ",
"                                      _{{{{{{((((({{{{{{@@.@@@@$$$$$$$@@@@@@@$$$$@@@                                            ",
"                                      _{{{{{((($$$$@@@@@@@.@@@@$$$$$$$@@@..@@@@@@@@@                                            ",
"                                      &{@@@@$$$$$$@@@@@@@@..@@@@@$$$$@@@@..@@@@@@@@.                                            ",
"                                      :]@@@@$$$$$$@@@@@@@....@@@@@@@@@@@.....@@@@...                                            ",
"                                      :]@@@@$$$$$$@@@@@@@....@@@@@@@@@@.............                                            ",
"                                      :].@@@@@@@@@@@@@@@..................@.........                                            ",
"                                      :...@@@@@@@@@@@@....@..............@@.........                                            ",
"                                      :......@@@@@@@....@@@@.....@@................@                                            ",
"                                      :................@@@@...@.......@@@@@......@@@                                            ",
"                                      <.@..............@@@....@@@@@@@@@@@@@@@@@@@@@@                                            ",
"                                      <.@@@.................@@@@@@@@@@@@@@@@@@@@@@@@                                            ",
"                                      <...@........@@......@@@@@@@@@@@@@@@@@@@@@@@@@                                            ",
"                                      <@..........@@@@@@@@@@@@@@@@@@@@@@@@@@@@@@@@@@                                            ",
"                                      [@@........@@@@@@@@@@@@@@@@@@@@@@@@@@@@@@@@@$$                                            ",
"                                      [@@@@..$@@@@@@@@@@@@@@@@@@@@@@@@@@@@@@@@@@@@$$                                            ",
"                                      [@@@@@@@@@@@@@@@@@@@@@@@@@$$@@@@$@@@@@@@@@$$$$                                            ",
"                                      [@@@@@@@@@@@@@@@@@@@@@@@@$$$$@@@$$$$$$$$$$$$$$                                            ",
"                                      [$@@@@@@@@@@@@@@@@@@@@@$$$$$@@@@@$$$$$$$$$$@@@@                                           ",
"                                      [$$@@@@@@@@@@$$@@@@$$$$$$@@@@@@@@@@$$$$$$@@@@@@                                           ",
"                                      [$$$$@@@@@@$$$@@@@@@$$$$@@@@@@@@@@@@@@@@@@@@@@@                                           ",
"                                      []$$$$$$@$$$@@@@@@@@@@@@@@@@@@@@@@@@@@@@@@@@@@@@                                          ",
"                                     ]]@@@$$$$$$$$@@@@@@@@@@@@@@@@@@@@@@@@@@@@@@@@@@@@@                                         ",
"                                     ]@@@@@@@@$$@@@@@@@@@@@@@@@@@@@@@@@@@@@@@@@@@@@@@@@@@                                       ",
"                                    ]-@@@@@@@@@@@@@@@@@@@@@@@@@@@$$@@@@@@@@@@@@@@@@@@@@@@@@                                     ",
"                                   ]--@@@@@@@@@@@@@@@@@@@@@@@@@@@$$$$@@@@@@@@@@@@@@@@@@@@@@@@                                   ",
"                                  ]--@@@@@@@@@@@@@@@@$$$$@@@@@@@@$$$$$$$$$@@@@@@@@@@@@@@@@@@@@@                                 ",
"                                 ]--@@@@@@@@@@@@@@$$$$$$@@@@@@@@@@$$$$$$$$$$$@@@@@$@@@@@@@@@@@@@@                               ",
"                               ]]--@@@@@@@@@@@@@@@$$$@@@@@@@@@@@@@@@@$$$$$$$$$@@@@$$$@@@@@@@@@@@@@@                             ",
"                            ]]]]--@@@@@@@@@@@@@@@@@@@@@@@@@@@@@@@@@@@@@@@@@@@@@@@@@@$$@@@@@@@@@@@@@@@                           ",
"                          ]]]]]--@@@@@@@@@@@@@@@@@@@@@@@@@@@@@@@@@@@@@@@@@@@@@@@@@@@$$$@@@@@@@@@@@@@@@@@                        "};
