/* XPM */
static char * bigleaves_xpm[] = {
"32 32 4 1",
" 	c #A3C23C",
".	c #5F8921",
"+	c #21582E",
"@	c #164134",
" .. ..+@@@++...+.  .+++++++++@+.",
" .+ .+++@@@+..+....@@@++. .++++.",
".++..++++@@@.++...++@@@@+   .++.",
".++..++....++++++.++++@@++ .  ..",
".+....      .+++++++++++++. .. +",
"++++    .    ..++@@@++...++. +..",
".++.   ..   ..++@@@+.++...++.++.",
".++   .+  ..+++@@@+. .++...+..+.",
"++. ..++ ..++++@@++   +++..+..+.",
"+...+++...+++++@@++ . ++++.++.@+",
"@...++....++ .++++. +.++.++@++@@",
"+..+++...++ .++.++. +.+. ++@@@@@",
"+.++@+...+. .++ .+...+.  .++@@@+",
"+++@@+..+@..++. .+..+.   .++++++",
"+++@@+++@@@+++.  .+.+  . .+++  .",
".+@@+++++@@@++.   ++. .+ +++++. ",
" .@@+.  .++++++ . .+..++.+@@@++.",
"...+. .++.  ..+ +..+..+..@@@++++",
"...+..++.  .++..++.....+.@@+++++",
"+.+@@+@@.      +++..+.++..   .++",
"+@@@@@@+. .++.. .++.+++.      .+",
"@@@@@@+++.+++++..+@.+.   .     .",
"@@+@@++++++++++++@@+.  .++. ... ",
"+@+@.   .+++@@@@+@@...+++. .++..",
"+++@+     .++@@@@@@..++++ .++++.",
"++++++   .  +++@@@++++++..+@@@+.",
"+...++.  ++. +@@@@@@@@+.++@@@+++",
"...++++..++...@@+@@@++++++++++++",
".+++++++..++..@++....+++.  .+++.",
"++.   .+...+..+.      .++.. ..++",
".     ++...+.+.  +++.  .+++...@@",
"  .  .+++++++...+.   ..+++++.@@+"};
