/* XPM */
static char * japan_wall_tatami_xpm[] = {
"32 32 11 1",
" 	c #602F06",
".	c #3D2C11",
"+	c #917B26",
"@	c #9F8727",
"#	c #C3AD5A",
"$	c #BCA04C",
"%	c #AB9039",
"&	c #78441A",
"*	c #87581E",
"=	c #693A17",
"-	c #8F4C1F",
" ...............................",
" +@#+@#+@$%+@#+@#+@$%+@#+@#+@$%.",
" +%#@%$$$#%+%#@%$$$#%+%#@%$$$#%.",
"&@%%%$#%%$%@%%%$#%%$%@%%%$#%%$%.",
" $$#+@#$$#%$$#+@#$$#%$$#+@#$$#%.",
"&+@$@%#+@#%+@$@%#+@#%+@$@%#+@#%.",
"&@%#@%$@%$%@%#@%$@%$%@%#@%$@%$%.",
"&@%#%$#$$#%@%#%$#$$#%@%#%$#$$#%.",
"&%%%%%$+@%%%%%%%$+@%%%%%%%$+@%%.",
"&%$#%$#@%#%%$#%$#@%#%%$#%$#@%#%.",
"&+@#+@#+@$%+@#+@#+@$%+@#+@#+@$%.",
"*+%#@%$$$#%+%#@%$$$#%+%#@%$$$#%.",
"&@%%%$#%%$%@%%%$#%%$%@%%%$#%%$%.",
"*$$#+@#$$#%$$#+@#$$#%$$#+@#$$#%.",
"&+@$@%#+@#%+@$@%#+@#%+@$@%#+@#%.",
"&@%#@%$@%$%@%#@%$@%$%@%#@%$@%$%.",
"&@%#%$#$$#%@%#%$#$$#%@%#%$#$$#%.",
" %%%%%$+@%%%%%%%$+@%%%%%%%$+@%%.",
"=%$#%$#@%#%%$#%$#@%#%%$#%$#@%#%.",
" %%%%%$+@%%%%%%%$+@%%%%%%%$+@%%.",
" %$#%$#@%#%%$#%$#@%#%%$#%$#@%#%.",
" +@#+@#+@$%+@#+@#+@$%+@#+@#+@$%.",
" +%#@%$$$#%+%#@%$$$#%+%#@%$$$#%.",
"=@%%%$#%%$%@%%%$#%%$%@%%%$#%%$%.",
"=$$#+@#$$#%$$#+@#$$#%$$#+@#$$#%.",
"=+@$@%#+@#%+@$@%#+@#%+@$@%#+@#%.",
"=@%#@%$@%$%@%#@%$@%$%@%#@%$@%$%.",
"=@%#%$#$$#%@%#%$#$$#%@%#%$#$$#%.",
"=%%%%%$+@%%%%%%%$+@%%%%%%%$+@%%.",
"=%$#%$#@%#%%$#%$#@%#%%$#%$#@%#%.",
"=+%#%%#%%#%+%#%%#%%#%+%#%%#%%#%.",
"==& &&------------------&&&& & ."};
