/* XPM */
static char * japan_wall_tatami_3_xpm[] = {
"32 32 10 1",
" 	c #602F06",
".	c #917B26",
"+	c #9F8727",
"@	c #C3AD5A",
"#	c #BCA04C",
"$	c #AB9039",
"%	c #78441A",
"&	c #87581E",
"*	c #3B2717",
"=	c #693A17",
"                                ",
" .+@.+@.+@.+#.+#.+@. .+@.+@.+#$ ",
" .$@+$#+$@##@##@+$@+ .$@+$###@$ ",
" +$$$#@+$#$$#.$@$$#$%+$$$#@$$#$ ",
" ##@.+@$#@##@+$###@$ ##@.+@##@$ ",
" .+#+$@$$#.+@##@.$#.%.+#+$@.+@$ ",
" +$@+$#$#@+$#.+###@+%+$@+$#+$#$ ",
" +$@$#@.$@##@##@.+@$%+$@$#@##@$ ",
" $$$$$#$$#.+$.+@+$#.%$$$$$#.+$$ ",
" $#@$#@$#@+$@+$###@+%$#@$#@+$@$ ",
" .$@$$@$$$$$@##@$$@$%.+@.+@.+#$ ",
"  % %%%%%&%&&&&&&&&%&.$@+$###@$ ",
" .+@.+@.+#$* = =& =&%+$$$#@$$#$ ",
" .$@+$###@$* =%= % =&##@.+@##@$ ",
" +$$$#@$$#$* %& =% %%.+#+$@.+@$ ",
" ##@.+@##@$* =%=%% =%+$@+$#+$#$ ",
" .+#+$@.+@$* =% =%= %+$@$#@##@$ ",
" +$@+$#+$#$* == =%%  $$$$$#.+$$ ",
" +$@$#@##@$*  = === =$#@$#@+$@$ ",
" $$$$$#.+$$* =  %%   .$@$$@$$@$ ",
" $#@$#@+$@$*********  % %%%% %  ",
"=.+@.+@.+#$*.+@.+@.+@.+#.+#.+@.=",
" .$@+$###@$*.$@+$#+$@##@##@+$@+ ",
"=+$$$#@$$#$*+$$$#@+$#$$#.$@$$#$=",
"=##@.+@##@$*##@.+@$#@##@+$###@$=",
"=.+#+$@.+@$ .+#+$@$$#.+@##@.$#.=",
"=+$@+$#+$#$*+$@+$#$#@+$#.+###@+=",
"=+$@$#@##@$ +$@$#@.$@##@##@.+@$%",
"%$$$$$#.+$$ $$$$$#$$#.+$.+@+$#.=",
"=$#@$#@+$@$ $#@$#@$#@+$@+$###@+%",
"%.$@$$@$$@$ .$@$$@$$$$$@##@$$@$%",
"&%=%===== =          = ====%=%%&"};
