/* XPM */
static char * shoji_wall_brown_grid_xpm[] = {
"32 32 12 1",
" 	c #452226",
".	c #78441A",
"+	c #825734",
"@	c #916A3B",
"#	c #948465",
"$	c #A89C80",
"%	c #522710",
"&	c #5E352D",
"*	c #BDB193",
"=	c #C3C1A2",
"-	c #3C3B15",
";	c #8F4C1F",
" ...++@@@@@@@@@@@@@@@@@@+++.... ",
".                              .",
". #$$$$$$%& #$$$$$$$%& #$$$$$$ .",
". #**=*==%& #**=*===%& #**=*== .",
". #*=*===%. #*=*====%. #*=*=== .",
". #=*=*==%& #=*=====%& #=*==== .",
". #*=*===%. #*=*====%. #*=*=== .",
". #======%. #=======%. #====== .",
". %%%%%%%%+ %%%%%%%%%+ %%%%%%% .",
". .+++++.%+ .++++++.%+ .+++++. .",
".  %%%%%%%+  %%%%%%%%+  %%%%%% .",
". #**=*==%+ #**=*===%+ #**=*== .",
". #*=*===%+ #*=*====%+ #*=*=== .",
". #=*====%+ #=*=====%+ #=*==== .",
". #*=*===%+ #*=*====%+ #*=*=== .",
". #======%+ #=======%+ #====== .",
". %%%%%%%%+ %%%%%%%%%+ %%%%%%% .",
". .+++++.%+ .++++++.%+ .+++++. .",
".  %%%%%%%+  %%%%%%%%+  %%%%%% .",
". -------%+ --------%+ ------- .",
". -......%+ -.......%+ -...... .",
". -;.;...%+ -;.;.;.;%+ -.;.;.. .",
". -;.;.;.%+ -;......%+ -.;...; .",
". -....;.%+ -..;.;.;%+ -...;.. .",
". -;.....%+ -......;%+ -...;.; .",
". -..;...%+ -;.;....%+ -.;.;.; .",
". -;.;.;.%+ -..;.;.;%+ -...... .",
". -......%+ -;...;..%+ -...;.; .",
". -;.;.;.%. -;.;.;.;%. -.;...; .",
". -;...;.%. -;.;.;.;%. -.;.;.; .",
".                              .",
" +............................+ "};
