/* XPM */
static char * shoji_wall_brown_full_xpm[] = {
"32 32 10 1",
" 	c #602F06",
".	c #693A17",
"+	c #3B2717",
"@	c #522710",
"#	c #694B2E",
"$	c #78441A",
"%	c #8F4C1F",
"&	c #966A23",
"*	c #5E352D",
"=	c #825734",
"                                ",
".++++++++++++++++++++++++++++++.",
" +@@@@@@@@@@@@@@@@@@@@@@@@ @  # ",
" +....$ +.....$ +.....$ +.....# ",
" +$.$.% +.$.$.% +.$.$.% +.$.$.# ",
" +..$.% +...$.% +...$.% +...$.# ",
" +$...& +.$...& +.$...& +.$...# ",
" +..$.% +.$.$.% +.$.$.% +.$.$.# ",
" +%$%%%&%&&&&&&&&&&&&&&&%&%%%%# ",
" +                            # ",
" +++++++++++++++++++++++++++++# ",
" +****************************# ",
" +=$%$%$=$=$=$=$%$=$=$%$=$=$%$# ",
" +%$$$$$%$=$=$%$$$=$%$$$=$%$$$# ",
" +$$%$%$$$%$%$$$%$%$$$%$%$$$%$# ",
" +$$$$$$$$$$$$$$$$$$=$$$$$$$$$# ",
" +%$=$$$%$=$$$%$=$$$%$=$$$%$=$# ",
" +$$%$=$$$%$=$$$%$=$$$%$=$$$%$# ",
" +=$$$=$=$$$%$=$$$=$=$$$=$=$$$# ",
" +%$=$%$%$=$$$%$%$%$%$%$%$%$=$# ",
" +%$%$%$%$%$$$%$%$%$%$%$%$%$%$# ",
" +#$###&#&&&&&&&&&&&&&&&#&###$# ",
" +                            # ",
" +++++++++++++++++++++++++++++# ",
" +....& +.....& +.....& +.....# ",
" +$.$.% +.$.$.% +.$.$.% +.$.$.# ",
" +..$.% +...$.% +...$.% +...$.# ",
" +$...% +.$...% +.$...% +.$...# ",
" +$.$.$ +.$.$.$ +.$.$.$ +.$.$.# ",
" +....% +.....% +.....% +.....# ",
" +############################+ ",
"+.                            .+"};
