/* XPM */
static char * stone_wall_mossy_xpm[] = {
"32 32 31 1",
" 	c #433119",
".	c #C7C5A7",
"+	c #A1957A",
"@	c #9A8B6E",
"#	c #948465",
"$	c #4D401F",
"%	c #85755C",
"&	c #7A6E58",
"*	c #916A3B",
"=	c #78652B",
"-	c #4D381C",
";	c #736244",
">	c #3C3B15",
",	c #C3C1A2",
"'	c #372C11",
")	c #56451A",
"!	c #7D722E",
"~	c #685822",
"{	c #63521F",
"]	c #5F4E1D",
"^	c #C5A260",
"/	c #445119",
"(	c #4E4119",
"_	c #4A3A13",
":	c #595652",
"<	c #664839",
"[	c #2D350B",
"}	c #7F5F1B",
"|	c #5B7229",
"1	c #34471E",
"2	c #422A10",
" .+@+@### .+@+@######@ .+@+@####",
"$+%%%%%%&$+%%%%%%%%%%&$+%%%%%%%%",
"$@%%%%%%&$@%%%%%%%%%%&$@%%%%*%%%",
"$+%&%&%&*$+%%%&%%&%&%*$+%%&%&%%&",
"$@*&%&*=*$@%*%&%&*&%*=$@&%%&*&*&",
"-#=***===-#%=*&*&=**==-#&***=*=*",
"--$-$$-$- -$-$$$$$$$$- -$$$$-$--",
"%;>;,+@#@#;')!~{~{]@]];',^+@@@##",
"%&/,^#%%%%%>!{{])%)))((>^@%%%&%&",
"&;>+#%&%&&;>~{]))()&_(;>>%%&&&&;",
";;>@#%%&&;;>{#))(%&_&_:>$<:&;&;;",
">>$#%%&&;&;>#%)))&&&;&;>[[>[>>>>",
")>[%%&&;&;:>>%%%(&&_&;:'>!}~{{{]",
"(_>[%%&&;::$$>;%%&;;;:$>|~@#)))%",
"_&_($>1>]]]~{(>;;:;::$$>)@#%&)&&",
"&;&;<$_}~{])(_(>$$$<<+@&<<%%&(&;",
";;;<$_!}@])))(;_;$^,+#%%&;>%&&;&",
":<<$2]^@])%&_&_&;<,+#%%&;;>><;:;",
"~{])<%{#%)%%&;&;:<+#%%&;&:>!{]))",
")))_<&%%&;&;;(;:<$#%%&;&;<!{~]]]",
"&_&__>>&&&&&&;:>[$>;;%&;;<@]%%))",
"&(;(;_[[>;;;/>>@%>$>>&;;:$#)&%(&",
"&;;;::]~{>[[>+@%%&&>[[>>$$$>;;_&",
";;::]~{]]][^@@%&&&;:[<@+@@##<<<;",
"#]^~{]))))>@%%&&&;:><^#%%%%%&;::",
"^@]%)&%(&(_<&;;:<<<$,#%%&&;&;;<,",
"@#%%(&&&_&;:$<<<_{]>@%%&&;&;;:[^",
"><;;_%&;&;:<<_~{]))(<>&;;;:<>[[$",
",^<>>>;;;:$;}{])%)))($>><><;+@#:",
"^@@#@&<>[[;!#])%)&(&(<$>;+@#%%%:",
"#&&%%&;&;[^@#%)%&&&_;;$;^#%%&;&>",
"#%&&&;;;;>@#%%)&&&;&;;<,#%%&;&;["};
