/* XPM */
static char * test_south_xpm[] = {
"32 32 112 2",
"  	c #3B2717",
". 	c #602F06",
"+ 	c #693A17",
"@ 	c #78441A",
"# 	c #522710",
"$ 	c #694B2E",
"% 	c #8F4C1F",
"& 	c #5E8519",
"* 	c #50CB1D",
"= 	c #2FE81E",
"- 	c #26F81F",
"; 	c #06FD1F",
"> 	c #0AF81F",
", 	c #27EF1F",
"' 	c #32E51D",
") 	c #44CC1C",
"! 	c #61A81C",
"~ 	c #637018",
"{ 	c #966A23",
"] 	c #675317",
"^ 	c #49D51D",
"/ 	c #00FF1F",
"( 	c #927B23",
"_ 	c #3B3517",
": 	c #34E31E",
"< 	c #8B651F",
"[ 	c #87581E",
"} 	c #2CAF1B",
"| 	c #48E21F",
"1 	c #71A71E",
"2 	c #8E8622",
"3 	c #5F4008",
"4 	c #3A4717",
"5 	c #70771B",
"6 	c #78941E",
"7 	c #6AB41E",
"8 	c #54D61F",
"9 	c #31F21F",
"0 	c #927A23",
"a 	c #18E61D",
"b 	c #3FCA17",
"c 	c #06FA1F",
"d 	c #655D17",
"e 	c #02FE1F",
"f 	c #07FE1F",
"g 	c #684818",
"h 	c #11F11E",
"i 	c #599B19",
"j 	c #25C81C",
"k 	c #19F71E",
"l 	c #51B01B",
"m 	c #385D18",
"n 	c #21F31E",
"o 	c #04FE1F",
"p 	c #41EE20",
"q 	c #3BD117",
"r 	c #2CB01B",
"s 	c #5E8618",
"t 	c #774C1A",
"u 	c #70761B",
"v 	c #43E61F",
"w 	c #20F91F",
"x 	c #56D31F",
"y 	c #7D841F",
"z 	c #53910F",
"A 	c #3BD219",
"B 	c #1CF41D",
"C 	c #48B415",
"D 	c #8D8923",
"E 	c #509D11",
"F 	c #28C11B",
"G 	c #33E41D",
"H 	c #02FF1F",
"I 	c #79B522",
"J 	c #6F7C1B",
"K 	c #2EF61F",
"L 	c #5F3B06",
"M 	c #646418",
"N 	c #15FB1F",
"O 	c #55880E",
"P 	c #31E61D",
"Q 	c #4EA212",
"R 	c #2FEE1E",
"S 	c #509B11",
"T 	c #6CB11F",
"U 	c #59750D",
"V 	c #14ED1E",
"W 	c #35DA1A",
"X 	c #46BB15",
"Y 	c #529510",
"Z 	c #577D0E",
"` 	c #5B6509",
" .	c #8D5B1F",
"..	c #5F3E08",
"+.	c #386018",
"@.	c #519710",
"#.	c #39D419",
"$.	c #42E91F",
"%.	c #08F81F",
"&.	c #11FB1F",
"*.	c #879A22",
"=.	c #30EE1E",
"-.	c #5D8A19",
";.	c #4BC01C",
">.	c #39DC1D",
",.	c #34EA1E",
"'.	c #19FB1F",
").	c #08FD1F",
"!.	c #0BF71E",
"~.	c #2EE91E",
"{.	c #42D11C",
"].	c #589D1A",
"  . . + + @ @ @ @ @ @ @ @ @ @ @ @ @ @ @ @ @ @ @ @ @ @ + + . .   ",
"+                                                             + ",
".   # # # # # # # # # # # # # # # # # # # # # # # # . # . . $ . ",
".   + + + + @ .   + + + + + @ .   + + + + + @ .   + + + + + $ . ",
".   @ + @ + % .   + @ + @ + % .   + @ + @ + % .   + @ + @ + $ . ",
".   + + @ + % .   + + & * = - ; > , ' ) ! ~ % .   + + + @ + $ . ",
".   @ + + + { .   ] ^ / / / / / / / / / / / ( .   + @ + + + $ . ",
".   + + @ + % . _ : / / / / / / / / / / / / < .   + @ + @ + $ . ",
".   @ [ [ [ { . } / / / | 1 2 3 4 5 6 7 8 9 0 .   @ [ [ [ [ $ . ",
".   # . . . { . a / / b . . { .   . . . . . { .   . . . . . $ . ",
".   + + + + { . c / / d + + { .   + + + + + { .   + + + + + $ . ",
".   @ + @ + { . e / f g @ + { .   + @ + @ + { .   + @ + @ + $ . ",
".   + + @ + { . h / / i @ + { .   + + + @ + { .   + + + @ + $ . ",
".   @ + + + { . j / / k l d { .   + @ + + + { .   + @ + + + $ . ",
".   + + @ + { . m n / / / o p q r s t + @ + { .   + @ + @ + $ . ",
".   @ [ [ [ { .   u v / / / / / / / w x y [ { .   @ [ [ [ [ $ . ",
".   # . . . { .   . . z A B / / / / / / ; C { .   . . . . . $ . ",
".   + + + + { .   + + + + + D E F G H / / / I .   + + + + + $ . ",
".   @ + @ + { .   + @ + @ + { .   + J = / / K L   + @ + @ + $ . ",
".   + + @ + { .   + + + @ + { .   + + M N / / O   + + + @ + $ . ",
".   @ + + + { .   + @ + + + { .   + @ + P / / Q   + @ + + + $ . ",
".   + + @ + { .   + @ + @ + { .   + @ + R / / S   + @ + @ + $ . ",
".   @ [ [ [ { .   @ [ [ [ [ { .   @ [ T / / / U   [ [ [ [ [ $ . ",
".   # . . . % . V W X Y Z `  ...+.@.#.H / / $..   . . . . . $ . ",
".   + + + + { . %./ / / / / / / / / / / / &.*..   + + + + + $ . ",
".   @ + @ + % . %./ / / / / / / / / / / =.-.% .   + @ + @ + $ . ",
".   + + @ + % . m i ;.>.,.n '.).!.~.{.].t + % .   + + + @ + $ . ",
".   @ + + + % .   + @ + + + % .   + @ + + + % .   + @ + + + $ . ",
".   @ + @ + @ .   + @ + @ + @ .   + @ + @ + @ .   + @ + @ + $ . ",
".   + + + + % .   + + + + + % .   + + + + + % .   + + + + + $ . ",
".   $ $ $ $ $ $ $ $ $ $ $ $ $ $ $ $ $ $ $ $ $ $ $ $ $ $ $ $   . ",
"  + . . . . . . . . . . . . . . . . . . . . . . . . . . . . +   "};
