/* XPM */
static char * test_north_xpm[] = {
"32 32 98 2",
"  	c #4D381C",
". 	c #5E4522",
"+ 	c #BA9961",
"@ 	c #C7C5A7",
"# 	c #E0DEBC",
"$ 	c #724321",
"% 	c #FF0010",
"& 	c #FF0713",
"* 	c #E6CAAB",
"= 	c #DE9F87",
"- 	c #C22617",
"; 	c #F1705F",
"> 	c #ECB498",
", 	c #D6AE94",
"' 	c #FD2927",
") 	c #F87362",
"! 	c #FA6758",
"~ 	c #F77E6B",
"{ 	c #EABFA1",
"] 	c #D3B398",
"^ 	c #FF0914",
"/ 	c #5F4522",
"( 	c #F58974",
"_ 	c #AD381D",
": 	c #F65A4E",
"< 	c #E5CFAF",
"[ 	c #FF1C1E",
"} 	c #F01713",
"| 	c #54381C",
"1 	c #F3927C",
"2 	c #B22B18",
"3 	c #E4D3B3",
"4 	c #FE2A27",
"5 	c #F40D12",
"6 	c #BD9760",
"7 	c #EC1B14",
"8 	c #CB2E1A",
"9 	c #BE321B",
"0 	c #B2361C",
"a 	c #C5301A",
"b 	c #66361B",
"c 	c #EB1513",
"d 	c #6A361B",
"e 	c #F90711",
"f 	c #F70A11",
"g 	c #63361C",
"h 	c #AE2B18",
"i 	c #948465",
"j 	c #9E8062",
"k 	c #F03A2F",
"l 	c #D2604A",
"m 	c #D45E49",
"n 	c #C56A51",
"o 	c #D35F49",
"p 	c #85755C",
"q 	c #9A8B6E",
"r 	c #ADB591",
"s 	c #ABA589",
"t 	c #A3926F",
"u 	c #B29571",
"v 	c #F03E33",
"w 	c #AB9974",
"x 	c #8E725A",
"y 	c #F8201F",
"z 	c #FB1D1D",
"A 	c #B6AE8B",
"B 	c #D07B5E",
"C 	c #CA4632",
"D 	c #A39D81",
"E 	c #917259",
"F 	c #EE332B",
"G 	c #736244",
"H 	c #C14A34",
"I 	c #DB5E4B",
"J 	c #CC7E68",
"K 	c #825F42",
"L 	c #7A6143",
"M 	c #F4201C",
"N 	c #FD0F16",
"O 	c #9A6E57",
"P 	c #AEA682",
"Q 	c #F34B3C",
"R 	c #D28568",
"S 	c #E4624B",
"T 	c #CE5443",
"U 	c #87745B",
"V 	c #F3392F",
"W 	c #FE0A14",
"X 	c #DD6C52",
"Y 	c #DB6F54",
"Z 	c #C3745C",
"` 	c #FC2320",
" .	c #B5A17E",
"..	c #86755C",
"+.	c #ED352C",
"@.	c #C78464",
"#.	c #F24536",
"$.	c #E83C31",
"  . . . . . . . . . . . . . . . . . . . . . . . . . . . . . . . ",
"              .               .               .               . ",
"  + + + + + + .   + + + + + + .   + + + + + + .   + + + + + + . ",
"  + @ @ @ @ @ .   + @ @ @ @ @ .   + @ @ @ @ @ .   + @ @ @ @ @ . ",
"  + @ # @ # @ .   + @ # @ # @ .   + @ # @ # @ .   + @ # @ # @ . ",
"  + # @ # @ # $ % % % & * @ # .   + # @ # = % % - + # @ # @ # . ",
"  + @ # @ # @ $ % % % % ; # @ .   + @ # @ > % % - + @ # @ # @ . ",
"  + # @ # @ # $ % % % % % , # .   + # @ # = % % - + # @ # @ # . ",
"  + @ # @ # # $ % % ' % % ) # .   + @ # @ > % % - + @ # @ # # . ",
"  + # # # @ # $ % % ! ~ % % { .   + # # # = % % - + # # # @ # . ",
"  + # @ # # # $ % % ! ] ^ % ! /   + # @ # > % % - + # @ # # # . ",
"  + # # # # # $ % % ! # ( % % _   + # # # > % % - + # # # # # . ",
"  + @ # # # # $ % % : # < [ % } | + @ # # > % % - + @ # # # # . ",
"  + # # # # # $ % % ! # # 1 % % 2 + # # # > % % - + # # # # # . ",
"  + # # # # # $ % % ! # # 3 4 % 5 6 # # # > % % - + # # # # # . ",
"  . . . . . . $ % % 7 . . . 8 % % 9 . . . 0 % % a . . . . . . . ",
"              b % % c       d e % f g     h % % -             . ",
"  i i i i i i j % % k i i i i l % % m i i n % % o i i i i i i . ",
"  p q r s i t u % % v r s w t x y % z A s B % % C p q r s w t . ",
"  p p q r D w E % % F q r D w G H % % I r J % % C G p q r D w . ",
"  G p p p p i K % % F p p p i i L M % N O B % % C p p p p p w . ",
"  i i P w i i j % % Q P w i w w P R % % S n % % T G P P w i w . ",
"  p q r q w q u % % v r q w q p p U V % W X % % Y p q r q w q . ",
"  G q q p P p u % % v q p P p G G p Z % % ` % % T p q q p P p . ",
"  G G p P w P  .% % F p P w P G G G ..+.% % % % T p p p P w P . ",
"  i w w P p D  .% % F p P p D w p p w @.% % % % Y p p w P p D . ",
"  p w p p D r  .% % #.p p D r w w p w p $.% % % T w w p p D r . ",
"  i P p p q q P p i P p p q q p p i P p p q q p i p P p p q q . ",
"  q q P w p p w p q q P w p p w p q q P w p p i p q q P w p p . ",
"  p q q i w P w p p q q i w P w w p q q i w P w p p q q i w P . ",
". . . . . . . . . . . . . . . . . . . . . . . . . . . . . . . . ",
". . . . . . . . . . . . . . . . . . . . . . . . . . . . . . . . "};
