/* XPM */
static char * test_east_xpm[] = {
"32 32 59 1",
" 	c #433119",
".	c #C7C5A7",
"+	c #A1957A",
"@	c #9A8B6E",
"#	c #948465",
"$	c #4D401F",
"%	c #85755C",
"&	c #7A6E58",
"*	c #916A3B",
"=	c #78652B",
"-	c #4D381C",
";	c #747452",
">	c #00ECFF",
",	c #23D2E3",
"'	c #4B554D",
")	c #1ED2E3",
"!	c #736244",
"~	c #3C3B15",
"{	c #C3C1A2",
"]	c #96947E",
"^	c #38D5E5",
"/	c #372C11",
"(	c #C5A260",
"_	c #445119",
":	c #818170",
"<	c #0DE3F5",
"[	c #7D722E",
"}	c #63521F",
"|	c #5F4E1D",
"1	c #56451A",
"2	c #4E4119",
"3	c #767C6D",
"4	c #685822",
"5	c #4A3A13",
"6	c #595652",
"7	c #664839",
"8	c #707260",
"9	c #2D350B",
"0	c #7F5F1B",
"a	c #13E3F5",
"b	c #5B7229",
"c	c #34471E",
"d	c #5C634D",
"e	c #40959A",
"f	c #656B4F",
"g	c #82B1AE",
"h	c #70A7A7",
"i	c #422A10",
"j	c #24E4F6",
"k	c #28E4F6",
"l	c #21E4F5",
"m	c #3A574B",
"n	c #60664E",
"o	c #08E3F5",
"p	c #3FE7F6",
"q	c #535D4C",
"r	c #837A67",
"s	c #48564A",
"t	c #787463",
" .+@+@### .+@+@######@ .+@+@####",
"$+%%%%%%&$+%%%%%%%%%%&$+%%%%%%%%",
"$@%%%%%%&$@%%%%%%%%%%&$@%%%%*%%%",
"$+%&%&%&*$+%%%&%%&%&%*$+%%&%&%%&",
"$@*&%&*=*$@%*%&%&*&%*=$@&%%&*&*&",
"-#=***==;>>>>>>>>>>>>>,#&***=*=*",
"--$-$$-$'>>>>>>>>>>>>>)-$$$$-$--",
"%!~!{+@#]>>>>>>>>>>>>>^/{(+@@@##",
"%&_{(#%%:>><[}}|1%11122~(@%%%&%&",
"&!~+#%&%3>><4}|1121&52!~~%%&&&&!",
"!!~@#%%&3>><}#112%&5&56~$76&!&!!",
"~~$#%%&&8>><#%111&&&!&!~99~9~~~~",
"1~9%%&&!3>><~%%%2&&5&!6/~[04}}}|",
"25~9%%&&8>>a$~!%%&!!!6$~b4@#111%",
"5&52$~c~d>>>>>>>>>>>>>e~1@#%&1&&",
"&!&!7$50f>>>>>>>>>>>>>g&77%%&2&!",
"!!!7$5[0]>>>>>>>>>>>>>h%&!~%&&!&",
"677$i|(@d>>j5&5&!7{+#%%&!!~~7!6!",
"4}|17%}#:>>k&!&!67+#%%&!&6~[}|11",
"11157&%%3>>l!2!67$#%%&!&!7[}4|||",
"&5&55~~&3>>j&!6~9$~!!%&!!7@|%%11",
"&2!2!599m>>l_~~@%~$~~&!!6$#1&%2&",
"&!!!66|4n>>o~+@%%&&~99~~$$$~!!5&",
"!!66|4}|d>>p@@%&&&!697@+@@##777!",
"#|(4}|11q>>>>>>>>>>>>>>r%%%%&!66",
"(@|%1&%23>>>>>>>>>>>>>>r&&!&!!7{",
"@#%%2&&&s>>>>>>>>>>>>>>t&!&!!69(",
"~7!!5%&!&!67754}|1127~&!!!67~99$",
"{(7~~~!!!6$!0}|1%1112$~~7~7!+@#6",
"(@@#@&7~99![#|1%1&2&27$~!+@#%%%6",
"#&&%%&!&!9(@#%1%&&&5!!$!(#%%&!&~",
"#%&&&!!!!~@#%%1&&&!&!!7{#%%&!&!9"};
