/* XPM */
static char * test_west_xpm[] = {
"32 32 138 2",
"  	c #4D381C",
". 	c #70592B",
"+ 	c #5E4522",
"@ 	c #3D2C11",
"# 	c #916A3B",
"$ 	c #78652B",
"% 	c #614922",
"& 	c #F8EE26",
"* 	c #FFF526",
"= 	c #EEE524",
"- 	c #EEE425",
"; 	c #CDC129",
"> 	c #82751E",
", 	c #D7CD25",
"' 	c #DCD225",
") 	c #8D7E2B",
"! 	c #85722A",
"~ 	c #E9DF27",
"{ 	c #B1A81C",
"] 	c #B3A623",
"^ 	c #BAAF23",
"/ 	c #C1AC34",
"( 	c #ACA024",
"_ 	c #FCF226",
": 	c #FDF327",
"< 	c #6C5923",
"[ 	c #D9CF23",
"} 	c #817123",
"| 	c #8C7C22",
"1 	c #DCCD2F",
"2 	c #D1C625",
"3 	c #D8CE25",
"4 	c #F7ED25",
"5 	c #A29424",
"6 	c #5F4722",
"7 	c #F7EC26",
"8 	c #F4E929",
"9 	c #F6EC26",
"0 	c #F4E82A",
"a 	c #EFE625",
"b 	c #B5A924",
"c 	c #D9D021",
"d 	c #C9BF24",
"e 	c #8D7D23",
"f 	c #DDCE2F",
"g 	c #DACE25",
"h 	c #7F6F22",
"i 	c #A0803A",
"j 	c #867722",
"k 	c #B4AC1B",
"l 	c #E9DE25",
"m 	c #B3A820",
"n 	c #B1A424",
"o 	c #C1AD34",
"p 	c #F4EA26",
"q 	c #827816",
"r 	c #FEF426",
"s 	c #705A22",
"t 	c #DCD125",
"u 	c #A0813A",
"v 	c #787016",
"w 	c #D5CA25",
"x 	c #DCCD30",
"y 	c #D7CE24",
"z 	c #3F3011",
"A 	c #F9EE28",
"B 	c #A49723",
"C 	c #F7ED26",
"D 	c #EDE523",
"E 	c #F3EA24",
"F 	c #F2E826",
"G 	c #F3E82A",
"H 	c #E4D62E",
"I 	c #CBC124",
"J 	c #8F8023",
"K 	c #CDC31E",
"L 	c #D4CB20",
"M 	c #7A6E1E",
"N 	c #6C6314",
"O 	c #CBB933",
"P 	c #EAE026",
"Q 	c #BCB124",
"R 	c #A2991A",
"S 	c #ACA31B",
"T 	c #AFA521",
"U 	c #A99F1A",
"V 	c #AD9238",
"W 	c #735F23",
"X 	c #DED324",
"Y 	c #625613",
"Z 	c #716815",
"` 	c #DACF28",
" .	c #D1C820",
"..	c #926C3B",
"+.	c #A79A24",
"@.	c #F9EF26",
"#.	c #ECE225",
"$.	c #F5E929",
"%.	c #F1E724",
"&.	c #DCD222",
"*.	c #CBC021",
"=.	c #AE9437",
"-.	c #CDC124",
";.	c #877823",
">.	c #BAB021",
",.	c #EBE123",
"'.	c #CCB933",
").	c #A69924",
"!.	c #C2AD35",
"~.	c #B6AA24",
"{.	c #B2A523",
"].	c #F6EB29",
"^.	c #E6D82D",
"/.	c #715C22",
"(.	c #A28339",
"_.	c #D9CE25",
":.	c #D6CB25",
"<.	c #E0D22E",
"[.	c #725C2B",
"}.	c #A49C1A",
"|.	c #FBF027",
"1.	c #E9DF25",
"2.	c #F0E425",
"3.	c #F3E926",
"4.	c #C6B234",
"5.	c #DFD425",
"6.	c #E7DE23",
"7.	c #CABF24",
"8.	c #D2C725",
"9.	c #A78B38",
"0.	c #BEB124",
"a.	c #F3E924",
"b.	c #938523",
"c.	c #FDF326",
"d.	c #786622",
"e.	c #D4CC1F",
"f.	c #624B22",
"g.	c #E6DC25",
"  . + + +   . + + + +   . + + +   . + + +   . + + +   . + + + + ",
"@ . + + +   . + + + +   . + + +   . + + +   . + + +   . + + + + ",
"  . + + +   . + + + +   . + + +   . + + +   . + + +   . + + + + ",
"@ # + + +   . + + + + @ . + + +   . + + + @ . + + + @ . + + + + ",
"@ . + + + @ . + + + + @ . + + + @ . + + +   . + + +   . + + + + ",
"@ . + + +   $ + + + + @ +       @ $ + + + @ $ + + + @ $ + + + + ",
"@ # + + + @ $ + + + + @ @     @ @ $ + + + @ $ + + + @ $ + + + + ",
"@ # % & * = # + + + + @   # - * * ; + + + @ +     > * * , + + + ",
"@ # + ' * * ) + + + + @ $ ! * * * ~ + + + @ @     { * * ] + + + ",
"@ # + ^ * * / + + + + @ # ( * _ * : < + + @   # + [ * * } + + + ",
"@ # + | * * 1 + + + + @ # 2 * 3 4 * 5 + + @ # . 6 7 * 8 + + + + ",
"@ # + + 9 * 0 + + + + @ # a * b c * d + + @ # + e * * f + + + + ",
"@ # + + g * * h + + + @ i * * j k * l + + @ # + ^ * * / + + + + ",
"@ +     m * * n + + + @ o * p + q * r s + @ # + t * * u + + + + ",
"@ @     v * * w + + + @ x * y + z A * B + @ # 6 C * D # + + + + ",
"@   # +   E * F + + + @ G * b + @ H * I + @ # J * * K # + + + + ",
"@ . . + + L * * M     N * * j + @ O * P + @ # Q * * R # + + + + ",
"  # + + + S * * T   @ U * p + + @ V * r W @ # X * * Y # + + + + ",
"@ # + + + Z * * ` +    .* y + + @ ..& * +.@ ..@.* #.@ +         ",
"@ # + + + @ $.* p + + %.* b + + @ # &.* *.@ =.* * -.@ @       @ ",
"@ # + + + @ f * * ;.} * * j + + @ @ >.* ,.@ '.* * ).@   # . +   ",
"@ # + + + @ !.* * ~.{.* ].+ + + @   =.* * Y ^.* r /.@ # . + + + ",
"@ # + + + @ (.* * _.:.* <.+ + + @ # [.@.* }.|.* 1.+ @ # + + + + ",
"@ # + + + @ # 2.* 9 3.* 4.+ + + @ # + 5.* 6.* * 7.+ @ # + + + + ",
"@ # + + + @ # 8.* * * * 9.+ + + @ # + 0.* * * * 5 + @ # + + + + ",
"@ # + + +   # ( * * * a.# + + + @ # + b.* * * c.< + @ # + + + + ",
"@ # + + + @ $ d.* * * e.$ + + + @ $ + f.@.* * g.+ + @ $ + + + + ",
"@ . + + +   # + + + +   $ + + + @ # + + + @ $ + + +   $ + + + + ",
"  # + + +   $ + + + + @ $ + + +   $ + + +   $ + + + @ $ + + + + ",
"@ . + + +   $ + + + +   $ + + + @ $ + + + @ $ + + +   $ + + + + ",
"  . + + +   . + + + +   . + + +   . + + +   . + + +   . + + + + ",
"  . + + +   . + + + +   . + + +   . + + +   . + + +   . + + + + "};
