/* XPM */
static char * blue8_xpm[] = {
"24 32 5 1",
" 	c #00FF00",
".	c #0D54F3",
"+	c #2273FF",
"@	c #38ADFF",
"#	c #47FFFF",
"                        ",
"                        ",
"                        ",
"                        ",
"                        ",
"                        ",
"                        ",
"                        ",
"                        ",
"                        ",
"                        ",
"              .         ",
"              .         ",
"                        ",
"        .. ++           ",
"        ..@@++          ",
"          @@++          ",
"          +..           ",
"           .            ",
"           .            ",
"           ..   ++      ",
"        ++ ..   ++      ",
"       ++++..   .+      ",
"       ++@@@++  .       ",
"        .@@@++...       ",
"        .+##@++.+++     ",
"        .#####+.++++    ",
"       ++#####@+@@++    ",
"      .+++#####+@@+.    ",
"      +++@#####@@..     ",
"      +++######@...     ",
"       .@#######+.      "};
