/* XPM */
static char * green5_xpm[] = {
"20 24 5 1",
" 	c #00FF00",
".	c #33984B",
"+	c #5AC54F",
"@	c #99E65F",
"#	c #D3FC7E",
"                    ",
"                    ",
"                    ",
"                    ",
"                    ",
"                    ",
"                    ",
"                    ",
"                    ",
"           .        ",
"           .        ",
"                    ",
"       .+   +       ",
"       +@   +       ",
"            .       ",
"          +         ",
"         +++        ",
"        +@## +      ",
"       .+###.++     ",
"      ++.###+++     ",
"     +++++@@@.      ",
"     +++###@@..     ",
"      .@#####@.     ",
"      .#######+     "};
