/* XPM */
static char * green1_xpm[] = {
"20 24 5 1",
" 	c #00FF00",
".	c #5AC54F",
"+	c #33984B",
"@	c #D3FC7E",
"#	c #99E65F",
"                    ",
"                    ",
"                    ",
"                    ",
"                    ",
"                    ",
"                    ",
"                    ",
"                    ",
"          .         ",
"          .+        ",
"           +        ",
"             .      ",
"                    ",
"                    ",
"         .          ",
"        ...         ",
"       +.@.  ..     ",
"      ..@@.+....    ",
"     ..#@@#.@@..    ",
"     .######@@.     ",
"      ##.@@@#.      ",
"      +.#@@@@.      ",
"       .@@@@@#+     "};
