/* XPM */
static char * orange5_xpm[] = {
"15 24 5 1",
" 	c #00FF00",
".	c #D1732E",
"+	c #AF4828",
"@	c #ECB51F",
"#	c #FFED56",
"        .      ",
"               ",
"               ",
"               ",
"     +         ",
"               ",
"               ",
"               ",
"       .       ",
"      ...      ",
"      @@.      ",
"      @@+      ",
"      .@       ",
"   +  ++       ",
"      ..  .    ",
"     ....+.    ",
"     .###+     ",
"     +###.     ",
"      .#@.     ",
"       @@      ",
"       @@      ",
"      .##+     ",
"     +@##+     ",
"     +###.     "};
