/* XPM */
static char * orange1_xpm[] = {
"15 24 5 1",
" 	c #00FF00",
".	c #D1732E",
"+	c #AF4828",
"@	c #FFED56",
"#	c #ECB51F",
"               ",
"               ",
"               ",
"               ",
"       .       ",
"       .+      ",
"       ++      ",
"               ",
"          +    ",
"      ...++    ",
"     .....+    ",
"     ..@@.     ",
"     .#@..     ",
"     +#.+      ",
"      +++      ",
"       ++      ",
"       ...     ",
"      .....    ",
"     +.#@..    ",
"     ..@@#.    ",
"     ..@@@+    ",
"     +#@@@+    ",
"     +#@@@     ",
"      #@@.     "};
