/* XPM */
static char * orange4_xpm[] = {
"15 24 5 1",
" 	c #00FF00",
".	c #AF4828",
"+	c #D1732E",
"@	c #ECB51F",
"#	c #FFED56",
"         .     ",
"               ",
"       +.      ",
"       ++      ",
"        +      ",
"               ",
"     .         ",
"     .         ",
"               ",
"               ",
"     ++.       ",
"    ++++       ",
"    ++@@       ",
"     @@+       ",
"      ..       ",
"   +  .++      ",
"      ++++     ",
"     ++@@++    ",
"     +#@@++    ",
"     .###+     ",
"      @##.     ",
"      ##@.     ",
"     .##@+     ",
"     .@##+     "};
