/* XPM */
static char * purple7_xpm[] = {
"24 32 5 1",
" 	c #00FF00",
".	c #AA24FB",
"+	c #7A09FA",
"@	c #DB3FFD",
"#	c #FE8BD7",
"                        ",
"                        ",
"                        ",
"                        ",
"                        ",
"                        ",
"                        ",
"                        ",
"                        ",
"                        ",
"                        ",
"                        ",
"                        ",
"          .   .         ",
"              .+        ",
"               +        ",
"        ++  .           ",
"       +++ @@@          ",
"       +++@@@@.         ",
"        + @@@@.         ",
"          .@@+          ",
"           +++          ",
"           ..+ ...      ",
"       ...+...+...      ",
"      ...........       ",
"      ..###..@@..       ",
"      +####@@@@@.+      ",
"      +###@##@@@.+      ",
"       .#@@##@@....     ",
"       .@@#####@@..     ",
"      +..######@@.+     ",
"     ++.@#######..      "};
