/* XPM */
static char * white3_xpm[] = {
"24 32 5 1",
" 	c #00FF00",
".	c #BDC2F8",
"+	c #849BE4",
"@	c #E2FEFA",
"#	c #DAE0EA",
"                        ",
"                        ",
"                        ",
"                        ",
"                        ",
"                        ",
"                        ",
"                        ",
"                        ",
"                        ",
"             .          ",
"                        ",
"                        ",
"                        ",
"          ++            ",
"         +++            ",
"          +             ",
"            ..          ",
"           ...          ",
"         . .@..         ",
"        ..  @..+        ",
"        ..  ..++        ",
"       +..++.++##       ",
"       ++.+.##+##.      ",
"       +..+####...      ",
"      .##.+####..+      ",
"      .###.##...++      ",
"      .##..@@@..++      ",
"       ++.@@@@#..+      ",
"       ++#@@@@@...      ",
"       ..@@@@@@##.+     ",
"      +.@@@@@@@##..     "};
