/* XPM */
static char * white5_xpm[] = {
"24 32 5 1",
" 	c #00FF00",
".	c #849BE4",
"+	c #BDC2F8",
"@	c #DAE0EA",
"#	c #E2FEFA",
"                        ",
"                        ",
"                        ",
"                        ",
"                        ",
"                        ",
"                        ",
"                        ",
"                        ",
"                        ",
"                        ",
"           .            ",
"                        ",
"             +          ",
"            @+          ",
"             .          ",
"                        ",
"         +     ++       ",
"        ++     ++       ",
"        ++     +        ",
"         + ++  .        ",
"        ++@@@+ .        ",
"        +@@@@++..       ",
"        ..@@+++..       ",
"        ..+###+.@+      ",
"        .++####+@@.     ",
"        .++####+@@+     ",
"      ++.+@####@+@+     ",
"      ++++@@##@@+++     ",
"      +++##@@###++.     ",
"      .+@#######+..     ",
"       .#######+++      "};
