/* XPM */
static char * dino9_xpm[] = {
"32 32 135 2",
"  	c #00FF00",
". 	c #382121",
"+ 	c #372121",
"@ 	c #2F1E1E",
"# 	c #402424",
"$ 	c #723435",
"% 	c #793637",
"& 	c #823A3B",
"* 	c #8B3D3E",
"= 	c #4A2727",
"- 	c #4F2929",
"; 	c #5B2B2C",
"> 	c #652C2D",
", 	c #9F4345",
"' 	c #A44547",
") 	c #AA4849",
"! 	c #B54B4D",
"~ 	c #BF4E50",
"{ 	c #C45052",
"] 	c #B64B4D",
"^ 	c #BD4D4F",
"/ 	c #B1494B",
"( 	c #3A2F22",
"_ 	c #382421",
": 	c #7B3435",
"< 	c #A84E50",
"[ 	c #A9585A",
"} 	c #964345",
"| 	c #9A4042",
"1 	c #A24345",
"2 	c #B84C4E",
"3 	c #A74648",
"4 	c #A94648",
"5 	c #472626",
"6 	c #371A21",
"7 	c #3F4C23",
"8 	c #467B25",
"9 	c #3B3022",
"0 	c #772E32",
"a 	c #C78586",
"b 	c #DBCBCB",
"c 	c #5F4141",
"d 	c #703335",
"e 	c #903E40",
"f 	c #405223",
"g 	c #498F26",
"h 	c #CE9091",
"i 	c #E3DFDF",
"j 	c #524040",
"k 	c #9C8080",
"l 	c #CB9495",
"m 	c #9A4243",
"n 	c #AE484A",
"o 	c #7D3839",
"p 	c #371D21",
"q 	c #3D3E22",
"r 	c #426224",
"s 	c #3A2922",
"t 	c #B3AEAE",
"u 	c #E2C2C2",
"v 	c #B84B4D",
"w 	c #C04E50",
"x 	c #6F342F",
"y 	c #BD8183",
"z 	c #DACACA",
"A 	c #B1A0A0",
"B 	c #DBB1B2",
"C 	c #A84648",
"D 	c #444B24",
"E 	c #6C373B",
"F 	c #A25153",
"G 	c #B25759",
"H 	c #3B5222",
"I 	c #5A262B",
"J 	c #9E3F41",
"K 	c #9F4042",
"L 	c #A24143",
"M 	c #673031",
"N 	c #5B2D2D",
"O 	c #3E2323",
"P 	c #373D21",
"Q 	c #5C2A2D",
"R 	c #592C2D",
"S 	c #2B1D1D",
"T 	c #321F1F",
"U 	c #A04244",
"V 	c #AC4849",
"W 	c #853B3C",
"X 	c #B25F58",
"Y 	c #C88F76",
"Z 	c #E3A285",
"` 	c #E8A588",
" .	c #E6A487",
"..	c #744F45",
"+.	c #2B181A",
"@.	c #753134",
"#.	c #B86F62",
"$.	c #DFBF95",
"%.	c #FEDBAA",
"&.	c #FFDCAB",
"*.	c #FFDDAC",
"=.	c #7E6251",
"-.	c #2D171A",
";.	c #7C3739",
">.	c #B76E61",
",.	c #DDBA92",
"'.	c #FAD2A4",
").	c #FED5A7",
"!.	c #816352",
"~.	c #482627",
"{.	c #A74447",
"].	c #B36C5F",
"^.	c #FFD7A8",
"/.	c #311B1C",
"(.	c #342020",
"_.	c #562B2B",
":.	c #954041",
"<.	c #A6524E",
"[.	c #D07E6E",
"}.	c #E1AD8B",
"|.	c #E8CB9D",
"1.	c #E5BD95",
"2.	c #D88975",
"3.	c #AA5551",
"4.	c #6A3032",
"5.	c #572B2C",
"6.	c #AB4347",
"7.	c #CA7668",
"8.	c #D1957B",
"9.	c #CC8672",
"0.	c #B64F4F",
"a.	c #883C3D",
"b.	c #773637",
"c.	c #643030",
"d.	c #622F2F",
"                                                                ",
"                                                                ",
"                                                                ",
"                                                                ",
"                        . . . . . . . . . . . .                 ",
"                + + @ # $ % & * * * * * * * * & =               ",
"                + - ; > , ' ) ! ~ { ~ ] ] ] ^ / -               ",
"              ( _ : < [ } | , 1 2 / 3 ' ' ' 4 | 5               ",
"          6 7 8 9 0 a b c : 1 ' ! $ d 2 2 2 e = .               ",
"          6 f g 9 0 h i j k l 3 2 m | ^ ~ ~ n o #               ",
"          p q r s 0 h i j t u 1 v w ~ 2 ^ 2 w n -               ",
"          . . _ ( x y z c A B C v ^ ^ ^ ^ ~ w n =               ",
"              ( 8 D E [ } F G 2 ^ ^ ^ ^ 2 ^ ~ 4 =               ",
"              9 g H I J 1 K L n 2 ^ ^ w ~ * M N O               ",
"              ( r P Q , 1 , , 1 n ^ n * * R S T +               ",
"              . . O M U 1 1 1 1 ' V W . .                       ",
"              . . d | ' ! 2 2 2 v $ #                           ",
"                . : X Y Z ` ` `  ...+.                          ",
"                + @.#.$.%.&.%.*.%.=.-.                          ",
"                = ;.>.,.'.%.).%.).!.-.                          ",
"          + + ~., {.].,.'.).^.^.).!./..                         ",
"          (._.:.4 {.<.>.[.}.|.1.2.3.4..                         ",
"          p 5.* ;.e {.6.v 7.8.9.0.v a..                         ",
"          . . . . : V v n 4 n ' :.:.d .                         ",
"                . b./ V R 5 = = 5 5 =                           ",
"                . o e c.                                        ",
"                . d.M T                                         ",
"                . . .                                           ",
"                                                                ",
"                                                                ",
"                                                                ",
"                                                                "};
