/* XPM */
static char *dino4[] = {
/* columns rows colors chars-per-pixel */
"32 32 209 2 ",
"   c #2D1719",
".  c #2D171A",
"X  c #2B181A",
"o  c #2A1A1B",
"O  c #311F1E",
"+  c #311F1F",
"@  c #321F1F",
"#  c #331F1F",
"$  c #34201F",
"%  c #371A21",
"&  c #371D21",
"*  c #342020",
"=  c #352020",
"-  c #372121",
";  c #382121",
":  c #392121",
">  c #382221",
",  c #392321",
"<  c #3A2222",
"1  c #3C2222",
"2  c #3D2323",
"3  c #3E2323",
"4  c #3F2323",
"5  c #382421",
"6  c #3A2922",
"7  c #3A2C22",
"8  c #3A2F22",
"9  c #3B2F22",
"0  c #3B3022",
"q  c #3B3322",
"w  c #373E21",
"e  c #3D3E22",
"r  c #422425",
"t  c #432525",
"y  c #442525",
"u  c #452526",
"i  c #472626",
"p  c #492727",
"a  c #4A2727",
"s  c #4B2727",
"d  c #4F2929",
"f  c #552B2B",
"g  c #562A2B",
"h  c #5A282B",
"j  c #592C2D",
"k  c #5A2C2D",
"l  c #5C2D2E",
"z  c #5D2D2E",
"x  c #5E2D2E",
"c  c #5E2E2E",
"v  c #602E2F",
"b  c #612E2F",
"n  c #612F2F",
"m  c #6E332E",
"M  c #772F33",
"N  c #782D32",
"B  c #643030",
"V  c #653031",
"C  c #673031",
"Z  c #673131",
"A  c #673132",
"S  c #683132",
"D  c #6D3233",
"F  c #703335",
"G  c #763234",
"H  c #713435",
"J  c #753536",
"K  c #793436",
"L  c #7E3537",
"P  c #7A3438",
"I  c #7A3638",
"U  c #7D3839",
"Y  c #7E3839",
"T  c #7F383A",
"R  c #394F1F",
"E  c #3F4C23",
"W  c #41451E",
"Q  c #405223",
"!  c #6C403B",
"~  c #426224",
"^  c #426324",
"/  c #467B25",
"(  c #514040",
")  c #544141",
"_  c #554141",
"`  c #6A4448",
"'  c #704242",
"]  c #744F45",
"[  c #7E6151",
"{  c #7E6251",
"}  c #7E6352",
"|  c #81393B",
" . c #823A3B",
".. c #86383A",
"X. c #853A3C",
"o. c #853B3C",
"O. c #893C3D",
"+. c #8A3C3D",
"@. c #8A3C3E",
"#. c #8C3D3E",
"$. c #9D3D3F",
"%. c #923F40",
"&. c #9C3E40",
"*. c #9F3F41",
"=. c #854244",
"-. c #964042",
";. c #974042",
":. c #9A4143",
">. c #9C4243",
",. c #9D4344",
"<. c #9F4244",
"1. c #A24044",
"2. c #A04245",
"3. c #A04345",
"4. c #A34345",
"5. c #A44346",
"6. c #A04446",
"7. c #A14446",
"8. c #A24446",
"9. c #A34446",
"0. c #A34547",
"q. c #A44446",
"w. c #A44547",
"e. c #A54547",
"r. c #AB4347",
"t. c #A84447",
"y. c #A84547",
"u. c #A84648",
"i. c #A94748",
"p. c #A94749",
"a. c #AA4749",
"s. c #AB4749",
"d. c #AC4849",
"f. c #AC484A",
"g. c #AD484A",
"h. c #AE484A",
"j. c #AF484A",
"k. c #B1494B",
"l. c #B34A4C",
"z. c #B44A4C",
"x. c #B54B4D",
"c. c #B74B4D",
"v. c #BA494C",
"b. c #B84B4D",
"n. c #B84C4E",
"m. c #B94C4E",
"M. c #B94D4E",
"N. c #BA4C4E",
"B. c #BB4D4F",
"V. c #BC4D4F",
"C. c #BD4D4F",
"Z. c #A6524E",
"A. c #BE4E50",
"S. c #BF4E50",
"D. c #BD5252",
"F. c #B25F58",
"G. c #B36C5F",
"H. c #8F777B",
"J. c #A76A6C",
"K. c #B76E61",
"L. c #B86F62",
"P. c #B87173",
"I. c #BD7475",
"U. c #B87C7D",
"Y. c #C04E50",
"T. c #C14F51",
"R. c #C45052",
"E. c #CA7668",
"W. c #D07E6E",
"Q. c #498F26",
"!. c #CD8772",
"~. c #C88F76",
"^. c #D68975",
"/. c #D1957B",
"(. c #AD8788",
"). c #B3AEAE",
"_. c #B4AEAE",
"`. c #C28B8D",
"'. c #CE9091",
"]. c #CA9394",
"[. c #DDBA92",
"{. c #DDBB92",
"}. c #DFBF95",
"|. c #E3A285",
" X c #E6A487",
".X c #E7A588",
"XX c #E8A588",
"oX c #E1AD8B",
"OX c #E5BD95",
"+X c #CAA6A7",
"@X c #E8CB9D",
"#X c #FAD2A4",
"$X c #FAD4A5",
"%X c #FED5A7",
"&X c #FED7A8",
"*X c #FFD7A8",
"=X c #FAD8A8",
"-X c #FFD8A8",
";X c #FFD8A9",
":X c #FEDBAA",
">X c #FFDCAB",
",X c #FFDDAC",
"<X c #E2C1C2",
"1X c #E3C2C2",
"2X c #E3C2C3",
"3X c #E2DEDE",
"4X c #E2DFDF",
"5X c #E3DFDF",
"6X c None",
/* pixels */
"6X6X6X6X6X6X6X6X6X6X6X6X6X6X6X6X6X6X6X6X6X6X6X6X6X6X6X6X6X6X6X6X",
"6X6X6X6X6X6X6X6X6X6X6X6X6X6X6X6X6X6X6X6X6X6X6X6X6X6X6X6X6X6X6X6X",
"6X6X6X6X6X6X6X6X6X6X6X6X6X6X6X6X6X6X6X6X6X6X6X6X6X6X6X6X6X6X6X6X",
"6X6X6X6X6X6X6X6X6X6X6X6X6X6X6X6X6X6X6X6X6X6X6X6X6X6X6X6X6X6X6X6X",
"6X6X6X6X6X6X6X6X6X6X6X6X6X6X6X6X6X6X6X6X6X6X6X6X6X6X6X6X6X6X6X6X",
"6X6X6X6X6X6X6X6X; O O # O $ O O O O O O O O * o 6X6X6X6X6X6X6X6X",
"6X6X6X6X6X6X6X6X; f x x x x n A S S A S S A A A 6X6X6X6X6X6X6X6X",
"6X6X6X6X6X6X6X8 5 K 3.,.3.,.i.M.M.C.M.b.b.n.C.i.s 6X6X6X6X6X6X6X",
"6X6X6X6X6X% E / 0 K e.8.8.<.8.w.M.C.z.e.e.8.h.a.s 6X6X6X6X6X6X6X",
"6X6X6X6X6X% Q Q.0 G I.+X' (.].w.b. .Y k.k.n.-.x 4 6X6X6X6X6X6X6X",
"6X6X6X6X6X& e ~ 6 N '.5X( ).<Xe.z.X. .C.C.T.<.x 4 6X6X6X6X6X6X6X",
"6X6X6X6X6X; ; 5 8 m `.5X_ _.<Xe.b.C.M.C.C.M.S.i.p 6X6X6X6X6X6X6X",
"6X6X6X6X6X6X6X8 / W H.5X_ _.<Xe.b.C.C.C.M.C.T.a.s 6X6X6X6X6X6X6X",
"6X6X6X6X6X6X6X0 Q.R ` U.=.J.P.e.M.C.C.T.S.R.R.h.s 6X6X6X6X6X6X6X",
"6X6X6X6X6X6X6X8 ~ w h $.3.*.$.3.h.C.d.@.@.@.#.Y t 6X6X6X6X6X6X6X",
"6X6X6X6X6X6X6X; ; 4 S 3.5.e.5.e.e.d.X.; ; ; ; ; ; 6X6X6X6X6X6X6X",
"6X6X6X6X6X6X6X; & F :.w.z.M.M.M.b.H t 6X6X6X6X6X6X6X6X6X6X6X6X6X",
"6X6X6X6X6X6X6X6X; N G.~.|.XX.XXX X] X 6X6X6X6X6X6X6X6X6X6X6X6X6X",
"6X6X6X6X6X6X6X6X* G L.}.=X,X,X,X>X{   6X6X6X6X6X6X6X6X6X6X6X6X6X",
"6X6X6X6X6X* t p p L K.{.$X;X&X;X&X{   6X6X6X6X6X6X6X6X6X6X6X6X6X",
"6X6X6X6X6XO n i.d.1.G.[.#X&X&X&X%X{ . 6X6X6X6X6X6X6X6X6X6X6X6X6X",
"6X6X6X6X6X* p J i.t.Z.L.W.oX@XOX^.! X 6X6X6X6X6X6X6X6X6X6X6X6X6X",
"6X6X6X6X6X6X# 2 F #.5.r.b.E./.!.D.X.x 6X6X6X6X6X6X6X6X6X6X6X6X6X",
"6X6X6X6X6X6X6X; p  .d.M.h.a.i.a.z.T.O.; 6X6X6X6X6X6X6X6X6X6X6X6X",
"6X6X6X6X6X6X6Xu X.,.d.d.k u p g -.M.@.; 6X6X6X6X6X6X6X6X6X6X6X6X",
"6X6X6X6X6X6X6X2 k x n B 6X6X6X6Xk A f ; 6X6X6X6X6X6X6X6X6X6X6X6X",
"6X6X6X6X6X6X6X; * $ O O 6X6X6X6XO O * ; 6X6X6X6X6X6X6X6X6X6X6X6X",
"6X6X6X6X6X6X6X6X6X6X6X6X6X6X6X6X6X6X6X6X6X6X6X6X6X6X6X6X6X6X6X6X",
"6X6X6X6X6X6X6X6X6X6X6X6X6X6X6X6X6X6X6X6X6X6X6X6X6X6X6X6X6X6X6X6X",
"6X6X6X6X6X6X6X6X6X6X6X6X6X6X6X6X6X6X6X6X6X6X6X6X6X6X6X6X6X6X6X6X",
"6X6X6X6X6X6X6X6X6X6X6X6X6X6X6X6X6X6X6X6X6X6X6X6X6X6X6X6X6X6X6X6X",
"6X6X6X6X6X6X6X6X6X6X6X6X6X6X6X6X6X6X6X6X6X6X6X6X6X6X6X6X6X6X6X6X"
};
