/* XPM */
static char *dino8[] = {
/* columns rows colors chars-per-pixel */
"32 32 206 2 ",
"   c #331C1D",
".  c #301E1E",
"X  c #311F1E",
"o  c #311F1F",
"O  c #321F1F",
"+  c #331F1F",
"@  c #341D1F",
"#  c #381E21",
"$  c #342020",
"%  c #352020",
"&  c #362020",
"*  c #372021",
"=  c #352720",
"-  c #382121",
";  c #392121",
":  c #382221",
">  c #382321",
",  c #3A2222",
"<  c #3D2323",
"1  c #372B21",
"2  c #3A2C22",
"3  c #3A2F22",
"4  c #3A3022",
"5  c #3B3322",
"6  c #393D21",
"7  c #412424",
"8  c #422424",
"9  c #432424",
"0  c #462525",
"q  c #452526",
"w  c #462526",
"e  c #462626",
"r  c #472626",
"t  c #482627",
"y  c #492627",
"u  c #492727",
"i  c #56272B",
"p  c #5B2429",
"a  c #54292A",
"s  c #542A2B",
"d  c #552A2B",
"f  c #552B2B",
"g  c #562B2B",
"h  c #5B2829",
"j  c #5D282B",
"k  c #5F2B2D",
"l  c #592C2C",
"z  c #592C2D",
"x  c #5A2C2D",
"c  c #5B2C2D",
"v  c #5E2C2D",
"b  c #5D2D2E",
"n  c #5E2E2E",
"m  c #523A33",
"M  c #533A33",
"N  c #702E2F",
"B  c #663031",
"V  c #673131",
"C  c #673132",
"Z  c #683132",
"A  c #6C3233",
"S  c #6E3334",
"D  c #6F3334",
"F  c #6C3A3B",
"G  c #703435",
"H  c #7E3839",
"J  c #7F3839",
"K  c #7E393A",
"L  c #3B4922",
"P  c #3C5222",
"I  c #3E5223",
"U  c #4B5726",
"Y  c #406623",
"T  c #436424",
"R  c #436524",
"E  c #417624",
"W  c #457525",
"Q  c #467B25",
"!  c #624040",
"~  c #7A604F",
"^  c #7C6F6F",
"/  c #7D6F6F",
"(  c #7C7373",
")  c #80393A",
"_  c #843A3C",
"`  c #8F383A",
"'  c #883C3D",
"]  c #893C3D",
"[  c #8A3C3E",
"{  c #9D3D3F",
"}  c #923D40",
"|  c #913E40",
" . c #923E40",
".. c #923F40",
"X. c #923F41",
"o. c #943F41",
"O. c #A03E40",
"+. c #934041",
"@. c #954042",
"#. c #964645",
"$. c #9B4143",
"%. c #9A4243",
"&. c #9B4243",
"*. c #9B4244",
"=. c #9F4244",
"-. c #9F4245",
";. c #9E4345",
":. c #944846",
">. c #974947",
",. c #925354",
"<. c #955455",
"1. c #A14143",
"2. c #A04245",
"3. c #A04345",
"4. c #A14345",
"5. c #A24346",
"6. c #A44244",
"7. c #A64346",
"8. c #A04445",
"9. c #A04446",
"0. c #A14446",
"q. c #A24446",
"w. c #A34446",
"e. c #A34546",
"r. c #A44446",
"t. c #A54547",
"y. c #A64647",
"u. c #AF4446",
"i. c #A74648",
"p. c #A84648",
"a. c #A54D4F",
"s. c #AC4849",
"d. c #AC484A",
"f. c #AD484A",
"g. c #AF484A",
"h. c #B14448",
"j. c #B4474A",
"k. c #B0484A",
"l. c #B0494B",
"z. c #B1494B",
"x. c #B4494B",
"c. c #B34A4C",
"v. c #B44A4C",
"b. c #B54A4C",
"n. c #B54B4D",
"m. c #B74A4D",
"M. c #B74B4D",
"N. c #B84A4C",
"B. c #B84B4E",
"V. c #B84C4E",
"C. c #B94C4E",
"Z. c #BA4C4E",
"A. c #BB4C4E",
"S. c #BB4D4F",
"D. c #BC4D4F",
"F. c #BD4D4F",
"G. c #BE4E50",
"H. c #BF4E50",
"J. c #AB5456",
"K. c #AB5D55",
"L. c #AD5D5F",
"P. c #AE5D5F",
"I. c #B55254",
"U. c #B85050",
"Y. c #8D6465",
"T. c #AE7463",
"R. c #A17863",
"E. c #B57B7C",
"W. c #BD7E7F",
"Q. c #C04E50",
"!. c #C14F51",
"~. c #C07365",
"^. c #C77567",
"/. c #CC776A",
"(. c #498F26",
"). c #BE866F",
"_. c #BF866F",
"`. c #BD8E74",
"'. c #C18B72",
"]. c #C58D74",
"[. c #D88975",
"{. c #C07F80",
"}. c #D69E81",
"|. c #CEAF8A",
" X c #DCA184",
".X c #DEA285",
"XX c #E0A587",
"oX c #E3AE8C",
"OX c #E4BB93",
"+X c #E3BE95",
"@X c #E4BE96",
"#X c #E9BE96",
"$X c #D7AAAB",
"%X c #E8C69A",
"&X c #E9C79B",
"*X c #EACB9E",
"=X c #FAD7A7",
"-X c #FED6A7",
";X c #FFD7A8",
":X c #FFDCAB",
">X c #FFDCAC",
",X c #FFE1AF",
"<X c #F1E4E4",
"1X c #F1E4E5",
"2X c #F2E5E5",
"3X c None",
/* pixels */
"3X3X3X3X3X3X3X3X3X3X3X3X3X3X3X3X3X3X3X3X3X3X3X3X3X3X3X3X3X3X3X3X",
"3X3X3X3X3X3X3X3X3X3X3X3X3X3X3X3X3X3X3X3X3X3X3X3X3X3X3X3X3X3X3X3X",
"3X3X3X3X3X3X3X3X3X3X3X3X3X3X3X3X3X3X3X3X3X3X3X3X3X3X3X3X3X3X3X3X",
"3X3X3X3X3X3X3X3X3X3X3X3X3X3X3X3X3X3X3X3X3X3X3X3X3X3X3X3X3X3X3X3X",
"3X3X3X3X3X3X3X3X3X3X3X3X3X3X3X3X3X3X3X3X3X3X3X3X3X3X3X3X3X3X3X3X",
"3X3X3X3X3X3X3X3X3X3Xo $ o o o o o o o o o 3X3X3X3X3X3X3X3X3X3X3X",
"3X3X3X3X3X3X3X3X3Xg n n B B B B Z B B B B g 3X3X3X3X3X3X3X3X3X3X",
"3X3X3X3X3X* < w w ) 0.0.n.Z.F.Z.Z.M.Z.Z.Z.Z o 3X3X3X3X3X3X3X3X3X",
"3X3X3X3X* * g | +.*.;.0.7.c.F.Z.p.0.7.p.n.B o 3X3X3X3X3X3X3X3X3X",
"3X3X3X4 R 6 j J.$XY.N { 3.x.$.D i.v.v.i.D w * 3X3X3X3X3X3X3X3X3X",
"3X3X3X4 (.I p L.2X( ! W.a.x.$.G c.U.H.k.G w * 3X3X3X3X3X3X3X3X3X",
"3X3X3X4 Q L p L.2X^ ^ 2XL.u.F.F.F.H.F.F.Z.B o 3X3X3X3X3X3X3X3X3X",
"3X3X3X> 4 1 h L.2X^ ^ 2XL.u.F.F.F.F.F.F.F.B o 3X3X3X3X3X3X3X3X3X",
"3X3X3X3X# I U F E.<.,.{.I.N.F.F.F.Z.F.Q.Q.Z o 3X3X3X3X3X3X3X3X3X",
"3X3X3X3X* W E 8 ` 7.1.O.k.Z.F.F.Q.Q.g.[ [ g o 3X3X3X3X3X3X3X3X3X",
"3X3X3X3X- R Y w [ 7.3.3.3.g.Z.Z.d.d._ - - - - 3X3X3X3X3X3X3X3X3X",
"3X3X3X3X# 2 2 y +.7.3.3.3.3.g.g.z w y 3X3X3X3X3X3X3X3X3X3X3X3X3X",
"3X3X3X3X3Xo g :.).}. X X XXXT.k 3X3X3X3X3X3X3X3X3X3X3X3X3X3X3X3X",
"3X3X3X3X3X3Xk :.).+X=X:X>X,X|.~ 3X3X3X3X3X3X3X3X3X3X3X3X3X3X3X3X",
"3X3X3X3X3X3X3Xg @.].%X:X;X;X:X+XM 3X3X3X3X3X3X3X3X3X3X3X3X3X3X3X",
"3X3X3X3X- o Z p.3.'.%X;X-X-X:X+XM o - 3X3X3X3X3X3X3X3X3X3X3X3X3X",
"3X3X3X3X* S ;.d.0.K.~.[.%X*XoX/.#.g # 3X3X3X3X3X3X3X3X3X3X3X3X3X",
"3X3X3X3X- S ' J $.7.h.U.R.`.^.j.M.B o 3X3X3X3X3X3X3X3X3X3X3X3X3X",
"3X3X3X3X- - * w | M.Z.$.u K 7.| [ k o 3X3X3X3X3X3X3X3X3X3X3X3X3X",
"3X3X3X3X3X3X3Xw | B.| y - w y w w 3X3X3X3X3X3X3X3X3X3X3X3X3X3X3X",
"3X3X3X3X3X3X3Xy o.K z 3X3X3X3X3X3X3X3X3X3X3X3X3X3X3X3X3X3X3X3X3X",
"3X3X3X3X3X3X3X8 G g 3X3X3X3X3X3X3X3X3X3X3X3X3X3X3X3X3X3X3X3X3X3X",
"3X3X3X3X3X3X3X* - 3X3X3X3X3X3X3X3X3X3X3X3X3X3X3X3X3X3X3X3X3X3X3X",
"3X3X3X3X3X3X3X3X3X3X3X3X3X3X3X3X3X3X3X3X3X3X3X3X3X3X3X3X3X3X3X3X",
"3X3X3X3X3X3X3X3X3X3X3X3X3X3X3X3X3X3X3X3X3X3X3X3X3X3X3X3X3X3X3X3X",
"3X3X3X3X3X3X3X3X3X3X3X3X3X3X3X3X3X3X3X3X3X3X3X3X3X3X3X3X3X3X3X3X",
"3X3X3X3X3X3X3X3X3X3X3X3X3X3X3X3X3X3X3X3X3X3X3X3X3X3X3X3X3X3X3X3X"
};
