/* XPM */
static char * dino5_xpm[] = {
"32 32 127 2",
"  	c #00FF00",
". 	c #382021",
"+ 	c #412424",
"@ 	c #462626",
"# 	c #4A2727",
"$ 	c #703435",
"% 	c #964042",
"& 	c #913E40",
"* 	c #9B4243",
"= 	c #AA4749",
"- 	c #AC4849",
"; 	c #9C4244",
"> 	c #3E4623",
", 	c #426124",
"' 	c #3A2C22",
") 	c #7D3839",
"! 	c #A54245",
"~ 	c #A03E41",
"{ 	c #A54547",
"] 	c #A44143",
"^ 	c #B0494B",
"/ 	c #BC4D4F",
"( 	c #C34F51",
"_ 	c #AD4749",
": 	c #B84C4E",
"< 	c #4B2828",
"[ 	c #371C21",
"} 	c #3E4923",
"| 	c #498F26",
"1 	c #3A3022",
"2 	c #783135",
"3 	c #B26061",
"4 	c #B87C7D",
"5 	c #844244",
"6 	c #A76A6C",
"7 	c #B77173",
"8 	c #B94B4D",
"9 	c #943F41",
"0 	c #A04446",
"a 	c #7E3839",
"b 	c #372121",
"c 	c #467B25",
"d 	c #762D31",
"e 	c #CB8F90",
"f 	c #E2DEDE",
"g 	c #554141",
"h 	c #B3AEAE",
"i 	c #E3C2C3",
"j 	c #A54648",
"k 	c #392721",
"l 	c #763031",
"m 	c #CC8F90",
"n 	c #E3DFDF",
"o 	c #B4AEAE",
"p 	c #4F4023",
"q 	c #9F7E81",
"r 	c #514040",
"s 	c #384D1D",
"t 	c #74575C",
"u 	c #CAA6A6",
"v 	c #704243",
"w 	c #AD8788",
"x 	c #CA9394",
"y 	c #BF4E50",
"z 	c #3A4922",
"A 	c #5D2A2E",
"B 	c #B74B4D",
"C 	c #362620",
"D 	c #A14345",
"E 	c #4B2728",
"F 	c #381E21",
"G 	c #602D2F",
"H 	c #893A3C",
"I 	c #AD4447",
"J 	c #B04548",
"K 	c #82383A",
"L 	c #5B2D2D",
"M 	c #7B3637",
"N 	c #AD5451",
"O 	c #B76E61",
"P 	c #D17E6E",
"Q 	c #D57F70",
"R 	c #D68070",
"S 	c #6D423C",
"T 	c #2A1A1B",
"U 	c #DDBA92",
"V 	c #FAD2A4",
"W 	c #FFD7A8",
"X 	c #FED5A7",
"Y 	c #7E6251",
"Z 	c #2D171A",
"` 	c #743335",
" .	c #FAD4A5",
"..	c #FEDAAA",
"+.	c #2D1A1B",
"@.	c #321F1F",
"#.	c #863B3C",
"$.	c #983D40",
"%.	c #DEBF95",
"&.	c #FAD9A9",
"*.	c #7E6352",
"=.	c #753536",
"-.	c #AA4447",
";.	c #B15F57",
">.	c #CB9077",
",.	c #BA9477",
"'.	c #DBB991",
").	c #F4D1A3",
"!.	c #F1C99E",
"~.	c #E7A98A",
"{.	c #744E44",
"].	c #2F1E1E",
"^.	c #662E30",
"/.	c #997661",
"(.	c #DBB08C",
"_.	c #D29D7F",
":.	c #BF5A57",
"<.	c #3F2323",
"[.	c #8A4442",
"}.	c #C45D59",
"|.	c #B44A4C",
"1.	c #4E2829",
"2.	c #572B2C",
"3.	c #3D2223",
"4.	c #54292A",
"5.	c #713234",
"6.	c #342020",
"                                                                ",
"                                                                ",
"                                                                ",
"                                                                ",
"                                                                ",
"                                                                ",
"                                                                ",
"                . + @ @ @ @ # # # # # # # # # #                 ",
"              . . $ % & & & * = = = = = = = - ; #               ",
"            > , ' ) ! ~ { ~ ] ^ / ( / _ - - : ^ <               ",
"          [ } | 1 2 3 4 5 6 7 { 8 * 9 = = = 0 a +               ",
"          b } c 1 d e f g h i j 8 $ $ : / ( & @ .               ",
"          . ' ' k l m n g o i j 8 ^ ^ / / / : * #               ",
"            [ ' , p q n r h i { 8 / / / / / ( - #               ",
"              1 | s t u v w x { : / / ( y y ( - #               ",
"              1 c z A 0 0 0 0 0 B / B = = = - * #               ",
"              k ' C A D D D D D 0 8 & E # # # # .               ",
"              . F G H D I J J J J K L                           ",
"              . . M N O P Q R R R S T                           ",
"                k l O U V W X X X Y Z                           ",
"                . ` O U  ...W ..X Y +.                          ",
"            @.+ #.$.O %.&...W ....*.Z                           ",
"          b # =.- -.;.>.,.'.).!.~.{.+.                          ",
"          ].^.j 9 * - = < /.(._.:.` <..                         ",
"          b <.# @ a { 9 # [.}.:./ |.K .                         ",
"                b 1.L 2.3.4.^.5.{ ( [..                         ",
"                . b @.6.b @.@.3.5.#.=..                         ",
"                              . . . .                           ",
"                                                                ",
"                                                                ",
"                                                                ",
"                                                                "};
