/* XPM */
static char *dino2[] = {
/* columns rows colors chars-per-pixel */
"32 32 210 2 ",
"   c #2D1719",
".  c #2D171A",
"X  c #2A1A1B",
"o  c #2E1A1B",
"O  c #311F1E",
"+  c #321F1F",
"@  c #331F1F",
"#  c #371A21",
"$  c #371B21",
"%  c #371C21",
"&  c #381E21",
"*  c #352020",
"=  c #372121",
"-  c #362620",
";  c #382021",
":  c #382121",
">  c #392121",
",  c #382321",
"<  c #3A2222",
"1  c #3F2323",
"2  c #392421",
"3  c #392721",
"4  c #392921",
"5  c #3A2C22",
"6  c #3A2F22",
"7  c #3B2F22",
"8  c #3A3022",
"9  c #3B3322",
"0  c #402323",
"q  c #412424",
"w  c #432525",
"e  c #462626",
"r  c #472626",
"t  c #482626",
"y  c #492727",
"u  c #4A2727",
"i  c #4B2728",
"p  c #4C2728",
"a  c #522A2A",
"s  c #542B2B",
"d  c #562B2B",
"f  c #5D2B2D",
"g  c #5D2A2E",
"h  c #5B2D2D",
"j  c #5E2D2E",
"k  c #5B3130",
"l  c #602D2F",
"z  c #632D2F",
"x  c #612F2F",
"c  c #642F30",
"v  c #662F30",
"b  c #762D31",
"n  c #653031",
"m  c #673031",
"M  c #693232",
"N  c #763031",
"B  c #713335",
"V  c #763235",
"C  c #773235",
"Z  c #703435",
"A  c #713435",
"S  c #753536",
"D  c #783135",
"F  c #7B3637",
"G  c #7B3539",
"H  c #7A3738",
"J  c #7B3738",
"K  c #713938",
"L  c #7D3839",
"P  c #7E3839",
"I  c #384D1D",
"U  c #3E4623",
"Y  c #3A4922",
"T  c #3E4923",
"R  c #4F4023",
"E  c #405223",
"W  c #6D423C",
"Q  c #426124",
"!  c #426224",
"~  c #467B25",
"^  c #514040",
"/  c #544141",
"(  c #554141",
")  c #704243",
"_  c #754E45",
"`  c #6D5446",
"'  c #74575C",
"]  c #7E6151",
"[  c #7E6251",
"{  c #7E6352",
"}  c #82383A",
"|  c #843B3C",
" . c #873B3C",
".. c #893A3C",
"X. c #913E40",
"o. c #923E40",
"O. c #923F40",
"+. c #933F41",
"@. c #953F41",
"#. c #983D40",
"$. c #A03E41",
"%. c #844244",
"&. c #954041",
"*. c #994143",
"=. c #9A4143",
"-. c #9A4243",
";. c #9B4243",
":. c #9C4244",
">. c #9F4244",
",. c #9F4345",
"<. c #A04043",
"1. c #A24042",
"2. c #A44143",
"3. c #A04244",
"4. c #A04345",
"5. c #A14345",
"6. c #A54245",
"7. c #A04446",
"8. c #A34446",
"9. c #A44446",
"0. c #A54446",
"q. c #A44547",
"w. c #A54547",
"e. c #AA4447",
"r. c #AD4447",
"t. c #A54648",
"y. c #A94648",
"u. c #A94749",
"i. c #AA4749",
"p. c #AB4749",
"a. c #AE4448",
"s. c #AF4448",
"d. c #AC4749",
"f. c #AD4749",
"g. c #AC4849",
"h. c #AD484A",
"j. c #AF484A",
"k. c #B04548",
"l. c #B0494B",
"z. c #B1494B",
"x. c #B54A4C",
"c. c #B64B4D",
"v. c #B74B4D",
"b. c #B84B4D",
"n. c #B94B4D",
"m. c #B84C4E",
"M. c #B94C4E",
"N. c #B84D4E",
"B. c #BB4D4F",
"V. c #BC4D4F",
"C. c #BD4D4F",
"Z. c #BD4E4F",
"A. c #AA514F",
"S. c #BE4E50",
"D. c #BF4E50",
"F. c #AD5451",
"G. c #8A6F5A",
"H. c #926958",
"J. c #B36259",
"K. c #A76A6C",
"L. c #B26061",
"P. c #B76E61",
"I. c #B97062",
"U. c #B87163",
"Y. c #B77173",
"T. c #B87C7D",
"R. c #C04E50",
"E. c #C14F51",
"W. c #C34F51",
"Q. c #C45052",
"!. c #C05A57",
"~. c #D17E6E",
"^. c #D57F70",
"/. c #498F26",
"(. c #BF826D",
"). c #D68070",
"_. c #CE9B7E",
"`. c #9F7E81",
"'. c #AD8788",
"]. c #B3AEAE",
"[. c #B4AEAE",
"{. c #CB8F90",
"}. c #CC8F90",
"|. c #CA9394",
" X c #CCAE88",
".X c #CFAE89",
"XX c #CDAE8A",
"oX c #DDBA92",
"OX c #DDBB92",
"+X c #E7AA8A",
"@X c #CAA6A6",
"#X c #F1C99E",
"$X c #F9D3A5",
"%X c #FAD3A5",
"&X c #FED5A7",
"*X c #FFD6A8",
"=X c #FED7A8",
"-X c #FFD7A8",
";X c #FFD8A8",
":X c #FFD8A9",
">X c #FFD9AA",
",X c #FEDAAA",
"<X c #FFE0AF",
"1X c #E2C1C2",
"2X c #E3C2C2",
"3X c #E3C2C3",
"4X c #E2DEDE",
"5X c #E2DFDF",
"6X c #E3DFDF",
"7X c None",
/* pixels */
"7X7X7X7X7X7X7X7X7X7X7X7X7X7X7X7X7X7X7X7X7X7X7X7X7X7X7X7X7X7X7X7X",
"7X7X7X7X7X7X7X7X7X7X7X7X7X7X7X7X7X7X7X7X7X7X7X7X7X7X7X7X7X7X7X7X",
"7X7X7X7X7X7X7X7X7X7X7X7X7X7X7X7X7X7X7X7X7X7X7X7X7X7X7X7X7X7X7X7X",
"7X7X7X7X7X7X7X7X7X7X7X7X7X7X7X7X7X7X7X7X7X7X7X7X7X7X7X7X7X7X7X7X",
"7X7X7X7X7X7X7X7X7X7X7X7X7X7X7X7X7X7X7X7X7X7X7X7X7X7X7X7X7X7X7X7X",
"7X7X7X7X7X7X7X7X7X7X7X7X7X7X7X7X7X7X7X7X7X7X7X7X7X7X7X7X7X7X7X7X",
"7X7X7X7X7X7X7X7X7X7X7X7X7X7X7X7X7X7X7X7X7X7X7X7X7X7X7X7X7X7X7X7X",
"7X7X7X7X7X7X7X7X= q r r r r r u u u u u u u u u 7X7X7X7X7X7X7X7X",
"7X7X7X7X7X7X7X; ; A &.O.O...>.p.p.p.p.p.p.p.h.:.u 7X7X7X7X7X7X7X",
"7X7X7X7X7X7XU Q 5 J 6.$.w.$.2.z.V.W.N.d.p.d.N.z.i 7X7X7X7X7X7X7X",
"7X7X7X7X7X% T /.8 D L.T.%.K.Y.w.b.-.O.p.p.p.>.L q 7X7X7X7X7X7X7X",
"7X7X7X7X7X= T ~ 8 b }.4X( [.3Xt.b.B A N.V.V.O.u ; 7X7X7X7X7X7X7X",
"7X7X7X7X7X; 5 5 3 N }.6X( [.3Xt.b.z.z.V.V.V.N.-.u 7X7X7X7X7X7X7X",
"7X7X7X7X7X7X% 5 Q R `.6X^ ].3Xt.b.V.V.V.V.V.E.h.i 7X7X7X7X7X7X7X",
"7X7X7X7X7X7X7X8 /.I ' @X) '.|.w.b.V.R.E.S.S.Q.h.i 7X7X7X7X7X7X7X",
"7X7X7X7X7X7X7X8 ~ Y g 7.7.7.7.7.x.V.x.p.p.p.h.-.r 7X7X7X7X7X7X7X",
"7X7X7X7X7X7X7X3 5 - h >.5.5.5.7.w.b.O.u u u u r ; 7X7X7X7X7X7X7X",
"7X7X7X7X7X7X7X; ; z ..1.r.k.k.k.r.} h 7X7X7X7X7X7X7X7X7X7X7X7X7X",
"7X7X7X7X7X7X7X; ; J F.I.~.).).).).W X 7X7X7X7X7X7X7X7X7X7X7X7X7X",
"7X7X7X7X7X7X7X7X; C P.OX%X&X&X&X&X] . 7X7X7X7X7X7X7X7X7X7X7X7X7X",
"7X7X7X7X7X7X7X7X; C P.OX%X,X&X,X&X] . 7X7X7X7X7X7X7X7X7X7X7X7X7X",
"7X7X7X7X7X7X+ q  .#.I.XXG.XX<X,X,X{ . 7X7X7X7X7X7X7X7X7X7X7X7X7X",
"7X7X7X7X7X= y S h.e.J.(.K H..X#X+X_ o 7X7X7X7X7X7X7X7X7X7X7X7X7X",
"7X7X7X7X7X+ x w.&.-.p.V.V.z ` _.!.v O 7X7X7X7X7X7X7X7X7X7X7X7X7X",
"7X7X7X7X7X= 1 u r L h.V.V.m k A.N.m + 7X7X7X7X7X7X7X7X7X7X7X7X7X",
"7X7X7X7X7X7X7X7X7Xa J z.V.M 0 h m d 7X7X7X7X7X7X7X7X7X7X7X7X7X7X",
"7X7X7X7X7X7X7X7X7X+ p J  .d @ + O 7X7X7X7X7X7X7X7X7X7X7X7X7X7X7X",
"7X7X7X7X7X7X7X7X7X; ; ; ; ; ; 7X7X7X7X7X7X7X7X7X7X7X7X7X7X7X7X7X",
"7X7X7X7X7X7X7X7X7X7X7X7X7X7X7X7X7X7X7X7X7X7X7X7X7X7X7X7X7X7X7X7X",
"7X7X7X7X7X7X7X7X7X7X7X7X7X7X7X7X7X7X7X7X7X7X7X7X7X7X7X7X7X7X7X7X",
"7X7X7X7X7X7X7X7X7X7X7X7X7X7X7X7X7X7X7X7X7X7X7X7X7X7X7X7X7X7X7X7X",
"7X7X7X7X7X7X7X7X7X7X7X7X7X7X7X7X7X7X7X7X7X7X7X7X7X7X7X7X7X7X7X7X"
};
