/* XPM */
static char *dino6[] = {
/* columns rows colors chars-per-pixel */
"32 32 207 2 ",
"   c #2D1719",
".  c #2D171A",
"X  c #2B181A",
"o  c #2F1C1D",
"O  c #311F1E",
"+  c #311F1F",
"@  c #321F1F",
"#  c #34201F",
"$  c #371A21",
"%  c #371D21",
"&  c #342020",
"*  c #352020",
"=  c #372121",
"-  c #382121",
";  c #392121",
":  c #382221",
">  c #392321",
",  c #3A2222",
"<  c #3C2223",
"1  c #3E2323",
"2  c #3F2323",
"3  c #382421",
"4  c #3A2922",
"5  c #3A2C22",
"6  c #3A2F22",
"7  c #3B2F22",
"8  c #3B3022",
"9  c #3B3322",
"0  c #373E21",
"q  c #3D3E22",
"w  c #422425",
"e  c #432525",
"r  c #452525",
"t  c #462626",
"y  c #492727",
"u  c #4A2727",
"i  c #4B2727",
"p  c #4F2929",
"a  c #542A2B",
"s  c #5A282B",
"d  c #5D282B",
"f  c #5A2C2D",
"g  c #5C2D2E",
"h  c #5D2D2E",
"j  c #5E2D2E",
"k  c #5E2E2E",
"l  c #4F3530",
"z  c #533A34",
"x  c #602E2F",
"c  c #612E2F",
"v  c #6E332E",
"b  c #632F30",
"n  c #672D30",
"m  c #642F30",
"M  c #772F33",
"N  c #782D32",
"B  c #643030",
"V  c #663031",
"C  c #673031",
"Z  c #673131",
"A  c #673132",
"S  c #683132",
"D  c #693132",
"F  c #6B3233",
"G  c #6E3334",
"H  c #703335",
"J  c #753134",
"K  c #713435",
"L  c #743536",
"P  c #753536",
"I  c #793436",
"U  c #783637",
"Y  c #7A3438",
"T  c #7A3638",
"R  c #7F3538",
"E  c #7D3839",
"W  c #7E3839",
"Q  c #394F1F",
"!  c #3F4C23",
"~  c #41451E",
"^  c #405223",
"/  c #65453D",
"(  c #6F413C",
")  c #426224",
"_  c #426324",
"`  c #467B25",
"'  c #514040",
"]  c #544141",
"[  c #554141",
"{  c #6A4448",
"}  c #704242",
"|  c #744F45",
" . c #7E6151",
".. c #7E6251",
"X. c #7E6352",
"o. c #81393B",
"O. c #823A3B",
"+. c #87393B",
"@. c #853B3C",
"#. c #823E3D",
"$. c #88393B",
"%. c #893C3D",
"&. c #8A3C3D",
"*. c #8A3C3E",
"=. c #8C3D3E",
"-. c #9D3D3F",
";. c #923E40",
":. c #943F41",
">. c #973F41",
",. c #9C3E40",
"<. c #9F3F41",
"1. c #854244",
"2. c #964042",
"3. c #9A4143",
"4. c #9D4344",
"5. c #9F4244",
"6. c #805047",
"7. c #A04245",
"8. c #A04345",
"9. c #A34345",
"0. c #A04446",
"q. c #A14446",
"w. c #A24446",
"e. c #A34446",
"r. c #A34547",
"t. c #A44446",
"y. c #A44547",
"u. c #A54547",
"i. c #A74547",
"p. c #A84547",
"a. c #A84648",
"s. c #A94648",
"d. c #A94748",
"f. c #A94749",
"g. c #AA4749",
"h. c #AB4749",
"j. c #AC4749",
"k. c #AC484A",
"l. c #AE484A",
"z. c #AF484A",
"x. c #B1494B",
"c. c #B34A4C",
"v. c #B44A4C",
"b. c #B54B4D",
"n. c #B74B4D",
"m. c #B84B4D",
"M. c #B84C4E",
"N. c #B94C4E",
"B. c #B94D4E",
"V. c #BA4C4E",
"C. c #BA4D4F",
"Z. c #BB4D4F",
"A. c #BC4D4F",
"S. c #BD4D4F",
"D. c #BE4E50",
"F. c #BF4E50",
"G. c #BF5353",
"H. c #B25F58",
"J. c #AF665B",
"K. c #8F777B",
"L. c #A76A6C",
"P. c #BA7163",
"I. c #B87173",
"U. c #BD7475",
"Y. c #B87C7D",
"T. c #C04E50",
"R. c #C14F51",
"E. c #C45052",
"W. c #498F26",
"Q. c #A78B6F",
"!. c #CA8571",
"~. c #C88F76",
"^. c #D78975",
"/. c #C09D7D",
"(. c #AD8788",
"). c #B3AEAE",
"_. c #B4AEAE",
"`. c #C28B8D",
"'. c #CE9091",
"]. c #CA9394",
"[. c #C6A682",
"{. c #DFBB93",
"}. c #E3A285",
"|. c #E6A487",
" X c #E7A588",
".X c #E8A588",
"XX c #E5BD95",
"oX c #CAA6A7",
"OX c #E2C398",
"+X c #F6CFA2",
"@X c #FED5A7",
"#X c #FED7A8",
"$X c #FFD8A8",
"%X c #FFD8A9",
"&X c #FEDBAA",
"*X c #FFDCAB",
"=X c #FBDDAC",
"-X c #FFDCAC",
";X c #FFDDAC",
":X c #FFDFAD",
">X c #E2C1C2",
",X c #E3C2C2",
"<X c #E3C2C3",
"1X c #E2DEDE",
"2X c #E2DFDF",
"3X c #E3DFDF",
"4X c None",
/* pixels */
"4X4X4X4X4X4X4X4X4X4X4X4X4X4X4X4X4X4X4X4X4X4X4X4X4X4X4X4X4X4X4X4X",
"4X4X4X4X4X4X4X4X4X4X4X4X4X4X4X4X4X4X4X4X4X4X4X4X4X4X4X4X4X4X4X4X",
"4X4X4X4X4X4X4X4X4X4X4X4X4X4X4X4X4X4X4X4X4X4X4X4X4X4X4X4X4X4X4X4X",
"4X4X4X4X4X4X4X4X4X4X4X4X4X4X4X4X4X4X4X4X4X4X4X4X4X4X4X4X4X4X4X4X",
"4X4X4X4X4X4X4X4X4X4X4X4X4X4X4X4X4X4X4X4X4X4X4X4X4X4X4X4X4X4X4X4X",
"4X4X4X4X4X4X4X4X- * # # & O O O O O O O O O # o 4X4X4X4X4X4X4X4X",
"4X4X4X4X4X4X4X4X- p h h h h b Z Z Z Z Z S Z S Z 4X4X4X4X4X4X4X4X",
"4X4X4X4X4X4X4X6 - T u.5.5.5.d.B.B.S.B.B.m.n.D.d.i 4X4X4X4X4X4X4X",
"4X4X4X4X4X$ ! ` 8 I u.w.w.5.w.y.B.S.x.u.u.u.x.g.i 4X4X4X4X4X4X4X",
"4X4X4X4X4X$ ^ W.8 J U.oX} (.].y.m.O.W x.x.v.2.h 1 4X4X4X4X4X4X4X",
"4X4X4X4X4X% q ) 4 N '.3X] ).>Xu.m.O.O.S.S.T.5.h 1 4X4X4X4X4X4X4X",
"4X4X4X4X4X- - 3 8 v `.3X[ _.>Xu.m.S.S.B.S.S.T.d.u 4X4X4X4X4X4X4X",
"4X4X4X4X4X4X4X6 ` ~ K.3X[ _.>Xu.m.S.S.S.B.S.T.g.u 4X4X4X4X4X4X4X",
"4X4X4X4X4X4X4X8 W.Q { Y.1.L.I.u.B.S.S.T.T.E.E.l.i 4X4X4X4X4X4X4X",
"4X4X4X4X4X4X4X6 ) 0 s -.7.<.,.7.x.S.l.*.*.*.=.W e 4X4X4X4X4X4X4X",
"4X4X4X4X4X4X4X- - 2 S 7.t.t.t.t.t.d.@.- - - - - - 4X4X4X4X4X4X4X",
"4X4X4X4X4X4X4X* % H 3.r.c.D.n.D.B.K w 4X4X4X4X4X4X4X4X4X4X4X4X4X",
"4X4X4X4X4X4X4X4X- I J.~.}. X X.X|.| X 4X4X4X4X4X4X4X4X4X4X4X4X4X",
"4X4X4X4X4X4X4X4X* J P.OX=X;X;X;X*X..  4X4X4X4X4X4X4X4X4X4X4X4X4X",
"4X4X4X4X4X- 2 i i R J.[.{.+X%X-X#X..  4X4X4X4X4X4X4X4X4X4X4X4X4X",
"4X4X4X4X4X# h d.d.y.#.l z Q.:X;X@X..  4X4X4X4X4X4X4X4X4X4X4X4X4X",
"4X4X4X4X4X* i P d.d.>.$.$.6.Q.OX^.( O 4X4X4X4X4X4X4X4X4X4X4X4X4X",
"4X4X4X4X4X4X% 1 G :.j.m.B.d / !.G.c O 4X4X4X4X4X4X4X4X4X4X4X4X4X",
"4X4X4X4X4X4X4X- - P :.:.;.a Z B.l.b O 4X4X4X4X4X4X4X4X4X4X4X4X4X",
"4X4X4X4X4X4X4X4X4Xt t t t - S g.f 4X4X4X4X4X4X4X4X4X4X4X4X4X4X4X",
"4X4X4X4X4X4X4X4X4X4X4X4X* m I Z 4X4X4X4X4X4X4X4X4X4X4X4X4X4X4X4X",
"4X4X4X4X4X4X4X4X4X4X4X4X- Z S O 4X4X4X4X4X4X4X4X4X4X4X4X4X4X4X4X",
"4X4X4X4X4X4X4X4X4X4X4X4X- - - 4X4X4X4X4X4X4X4X4X4X4X4X4X4X4X4X4X",
"4X4X4X4X4X4X4X4X4X4X4X4X4X4X4X4X4X4X4X4X4X4X4X4X4X4X4X4X4X4X4X4X",
"4X4X4X4X4X4X4X4X4X4X4X4X4X4X4X4X4X4X4X4X4X4X4X4X4X4X4X4X4X4X4X4X",
"4X4X4X4X4X4X4X4X4X4X4X4X4X4X4X4X4X4X4X4X4X4X4X4X4X4X4X4X4X4X4X4X",
"4X4X4X4X4X4X4X4X4X4X4X4X4X4X4X4X4X4X4X4X4X4X4X4X4X4X4X4X4X4X4X4X"
};
