/* XPM */
static char * dino3_xpm[] = {
"32 32 134 2",
"  	c #00FF00",
". 	c #382121",
"+ 	c #372121",
"@ 	c #34201F",
"# 	c #371D21",
"$ 	c #311F1E",
"% 	c #342020",
"& 	c #2D171A",
"* 	c #4F2929",
"= 	c #5C2D2E",
"- 	c #612E2F",
"; 	c #673132",
"> 	c #683132",
", 	c #3A2F22",
"' 	c #382421",
") 	c #793436",
"! 	c #A54547",
"~ 	c #9D4344",
"{ 	c #9F4244",
"] 	c #A74648",
"^ 	c #B74B4D",
"/ 	c #BB4D4F",
"( 	c #BC4D4F",
"_ 	c #B54B4D",
": 	c #B84B4D",
"< 	c #BE4E50",
"[ 	c #AA4749",
"} 	c #4B2727",
"| 	c #371A21",
"1 	c #3F4C23",
"2 	c #467B25",
"3 	c #3B3022",
"4 	c #A24446",
"5 	c #B34A4C",
"6 	c #B1494B",
"7 	c #AA4849",
"8 	c #405223",
"9 	c #498F26",
"0 	c #763234",
"a 	c #BD7475",
"b 	c #CAA6A7",
"c 	c #704242",
"d 	c #AD8788",
"e 	c #CA9394",
"f 	c #823A3B",
"g 	c #7E3839",
"h 	c #964042",
"i 	c #3F2323",
"j 	c #3D3E22",
"k 	c #426224",
"l 	c #3A2922",
"m 	c #782D32",
"n 	c #CE9091",
"o 	c #E3DFDF",
"p 	c #514040",
"q 	c #B3AEAE",
"r 	c #E2C1C2",
"s 	c #C45052",
"t 	c #6E332E",
"u 	c #C28B8D",
"v 	c #554141",
"w 	c #B4AEAE",
"x 	c #41451E",
"y 	c #8F777B",
"z 	c #BF4E50",
"A 	c #394F1F",
"B 	c #6A4448",
"C 	c #B87C7D",
"D 	c #854244",
"E 	c #A76A6C",
"F 	c #B87173",
"G 	c #C14F51",
"H 	c #AE484A",
"I 	c #373E21",
"J 	c #5A282B",
"K 	c #9D3D3F",
"L 	c #A04345",
"M 	c #9F3F41",
"N 	c #8C3D3E",
"O 	c #432525",
"P 	c #A44346",
"Q 	c #853B3C",
"R 	c #723435",
"S 	c #9A4143",
"T 	c #703334",
"U 	c #422425",
"V 	c #B25F58",
"W 	c #C88F76",
"X 	c #E3A285",
"Y 	c #E7A588",
"Z 	c #E8A588",
"` 	c #E6A487",
" .	c #744F45",
"..	c #2B181A",
"+.	c #B86F62",
"@.	c #DFBF95",
"#.	c #FAD8A8",
"$.	c #FFDDAC",
"%.	c #FEDBAA",
"&.	c #7E6352",
"*.	c #2D1719",
"=.	c #3D2323",
"-.	c #492727",
";.	c #7D3739",
">.	c #B76E61",
",.	c #DDBB92",
"'.	c #FAD2A4",
").	c #FED7A8",
"!.	c #7E6251",
"~.	c #602E2F",
"{.	c #A24044",
"].	c #B36C5F",
"^.	c #FED5A7",
"/.	c #816352",
"(.	c #311B1C",
"_.	c #753536",
":.	c #A84447",
"<.	c #A6524E",
"[.	c #D07E6E",
"}.	c #E1AD8B",
"|.	c #E8CB9D",
"1.	c #E5BD95",
"2.	c #D88975",
"3.	c #AA5551",
"4.	c #6A3032",
"5.	c #AB4347",
"6.	c #CA7668",
"7.	c #D1957B",
"8.	c #CC8672",
"9.	c #B64F4F",
"0.	c #893C3D",
"a.	c #933F41",
"b.	c #472626",
"c.	c #643030",
"                                                                ",
"                                                                ",
"                                                                ",
"                                                                ",
"                                                                ",
"                . + @ @ @ # $ $ $ $ $ $ $ $ % &                 ",
"                . * = = = = - ; ; ; ; ; ; > > ;                 ",
"              , ' ) ! ~ { ~ ] ^ / ( / _ _ : < [ }               ",
"          | 1 2 3 ) ! 4 4 { 4 ] / ( 5 ! ! 4 6 7 }               ",
"          | 8 9 3 0 a b c d e ] ^ f g 6 6 5 h = i               ",
"          # j k l m n o p q r ! ^ f f ( < s { = i               ",
"          . . ' , t u o v w r ! / / / ( / / < 7 }               ",
"              , 2 x y o v w r ! _ ( ( ( / / z 7 }               ",
"              3 9 A B C D E F ! : ( ( G s z s H }               ",
"              , k I J K L M K L H ( H N N N N g O               ",
"              . . i > L P ! P ! ! H Q . . . . . .               ",
"              . . R S 4 5 / / / / T U                           ",
"                . ) V W X Y Y Z `  ...                          ",
"                # 0 +.@.#.$.%.$.%.&.*.                          ",
"          . =.-.-.;.>.,.'.%.).%.).!.*.                          ",
"          $ ~.[ [ {.].,.'.).).).^./.(..                         ",
"          + -._.[ :.<.+.[.}.|.1.2.3.> .                         ",
"            + =.4.h P 5.: 6.7.8.9.: 0..                         ",
"              . =.) H : 7 [ [ [ h a.R .                         ",
"                . ) 6 7 = b.-.-.b.b.-.                          ",
"                . g a.c.                                        ",
"                . - ; $                                         ",
"                . . .                                           ",
"                                                                ",
"                                                                ",
"                                                                ",
"                                                                "};
