/* XPM */
static char *dino1[] = {
/* columns rows colors chars-per-pixel */
"32 32 207 2 ",
"   c #2D1719",
".  c #2D171A",
"X  c #2B181A",
"o  c #2C1D1D",
"O  c #2F1C1D",
"+  c #311F1E",
"@  c #311F1F",
"#  c #321F1F",
"$  c #34201F",
"%  c #371A21",
"&  c #371D21",
"*  c #342020",
"=  c #352020",
"-  c #372121",
";  c #382121",
":  c #392121",
">  c #382221",
",  c #392321",
"<  c #3A2222",
"1  c #3D2323",
"2  c #3E2323",
"3  c #3F2323",
"4  c #382421",
"5  c #3A2922",
"6  c #3A2C22",
"7  c #3A2F22",
"8  c #3B2F22",
"9  c #3B3022",
"0  c #3B3322",
"q  c #373E21",
"w  c #3D3E22",
"e  c #422425",
"r  c #432525",
"t  c #442525",
"y  c #492727",
"u  c #4A2727",
"i  c #4B2727",
"p  c #4F2929",
"a  c #502929",
"s  c #51292A",
"d  c #5A282B",
"f  c #592C2D",
"g  c #5C2D2E",
"h  c #5D2D2E",
"j  c #5E2D2E",
"k  c #5E2E2E",
"l  c #602E2F",
"z  c #612E2F",
"x  c #622F2F",
"c  c #652D2F",
"v  c #6E332E",
"b  c #772F33",
"n  c #782D32",
"m  c #643030",
"M  c #673031",
"N  c #673131",
"B  c #673132",
"V  c #683132",
"C  c #6A3132",
"Z  c #6F3334",
"A  c #703334",
"S  c #703335",
"D  c #763234",
"F  c #713435",
"G  c #753536",
"H  c #773637",
"J  c #793436",
"K  c #793637",
"L  c #7E3537",
"P  c #7A3438",
"I  c #7A3638",
"U  c #7D3739",
"Y  c #7D3839",
"T  c #7E3839",
"R  c #394F1F",
"E  c #3F4C23",
"W  c #41451E",
"Q  c #405223",
"!  c #6F413C",
"~  c #426224",
"^  c #426324",
"/  c #467B25",
"(  c #514040",
")  c #544141",
"_  c #554141",
"`  c #6A4448",
"'  c #704242",
"]  c #744F45",
"[  c #7E6151",
"{  c #7E6251",
"}  c #7E6352",
"|  c #81393B",
" . c #823A3B",
".. c #853B3C",
"X. c #893C3D",
"o. c #8A3C3D",
"O. c #8A3C3E",
"+. c #8C3D3E",
"@. c #9D3D3F",
"#. c #913E40",
"$. c #933F41",
"%. c #9C3E40",
"&. c #9F3F41",
"*. c #854244",
"=. c #964042",
"-. c #9A4143",
";. c #9D4344",
":. c #9F4244",
">. c #A24044",
",. c #A04245",
"<. c #A04345",
"1. c #A34345",
"2. c #A44346",
"3. c #A04446",
"4. c #A14446",
"5. c #A24446",
"6. c #A34446",
"7. c #A34547",
"8. c #A44446",
"9. c #A44547",
"0. c #A54547",
"q. c #A74547",
"w. c #AB4347",
"e. c #A84447",
"r. c #A84547",
"t. c #A84648",
"y. c #A94748",
"u. c #A94749",
"i. c #AA4749",
"p. c #AB4749",
"a. c #AC4849",
"s. c #AC484A",
"d. c #AE484A",
"f. c #AF484A",
"g. c #AF494B",
"h. c #B1494B",
"j. c #B34A4C",
"k. c #B44A4C",
"l. c #B54B4D",
"z. c #B74B4D",
"x. c #BA494C",
"c. c #B84B4D",
"v. c #B84C4E",
"b. c #B94C4E",
"n. c #B94D4E",
"m. c #BA4C4E",
"M. c #BB4D4F",
"N. c #BC4D4F",
"B. c #BD4D4F",
"V. c #A6524E",
"C. c #BE4E50",
"Z. c #BF4E50",
"A. c #BC5251",
"S. c #B25F58",
"D. c #B36C5F",
"F. c #8F777B",
"G. c #A76A6C",
"H. c #B76E61",
"J. c #B86F62",
"K. c #B87173",
"L. c #BD7475",
"P. c #B87C7D",
"I. c #C04E50",
"U. c #C14F51",
"Y. c #C45052",
"T. c #CA7668",
"R. c #D07E6E",
"E. c #498F26",
"W. c #CB8671",
"Q. c #C88F76",
"!. c #D68975",
"~. c #D0947A",
"^. c #AD8788",
"/. c #B3AEAE",
"(. c #B4AEAE",
"). c #C28B8D",
"_. c #CE9091",
"`. c #CA9394",
"'. c #DDBA92",
"]. c #DDBB92",
"[. c #DFBF95",
"{. c #E3A285",
"}. c #E6A487",
"|. c #E7A588",
" X c #E8A588",
".X c #E1AD8B",
"XX c #E5BD95",
"oX c #CAA6A7",
"OX c #E8CB9D",
"+X c #FAD2A4",
"@X c #FAD4A5",
"#X c #FED5A7",
"$X c #FED7A8",
"%X c #FFD7A8",
"&X c #FAD8A8",
"*X c #FFD8A8",
"=X c #FFD8A9",
"-X c #FEDBAA",
";X c #FFDCAB",
":X c #FFDDAC",
">X c #E2C1C2",
",X c #E3C2C2",
"<X c #E3C2C3",
"1X c #E2DEDE",
"2X c #E2DFDF",
"3X c #E3DFDF",
"4X c None",
/* pixels */
"4X4X4X4X4X4X4X4X4X4X4X4X4X4X4X4X4X4X4X4X4X4X4X4X4X4X4X4X4X4X4X4X",
"4X4X4X4X4X4X4X4X4X4X4X4X4X4X4X4X4X4X4X4X4X4X4X4X4X4X4X4X4X4X4X4X",
"4X4X4X4X4X4X4X4X4X4X4X4X4X4X4X4X4X4X4X4X4X4X4X4X4X4X4X4X4X4X4X4X",
"4X4X4X4X4X4X4X4X4X4X4X4X4X4X4X4X4X4X4X4X4X4X4X4X4X4X4X4X4X4X4X4X",
"4X4X4X4X4X4X4X4X4X4X4X4X4X4X4X4X4X4X4X4X4X4X4X4X4X4X4X4X4X4X4X4X",
"4X4X4X4X4X4X4X4X; & $ $ + * + + + + + + + + $ O 4X4X4X4X4X4X4X4X",
"4X4X4X4X4X4X4X4X; s j j j j z B B B B B B B V B 4X4X4X4X4X4X4X4X",
"4X4X4X4X4X4X4X7 4 J <.;.<.;.y.n.n.B.n.z.z.z.B.y.i 4X4X4X4X4X4X4X",
"4X4X4X4X4X% E / 9 J 0.5.5.:.5.9.n.B.h.0.0.0.h.u.i 4X4X4X4X4X4X4X",
"4X4X4X4X4X% Q E.9 D L.oX' ^.`.9.c.| T h.h.j.=.j 3 4X4X4X4X4X4X4X",
"4X4X4X4X4X& w ~ 5 n _.3X( /.>X0.c.| | B.B.U.:.j 1 4X4X4X4X4X4X4X",
"4X4X4X4X4X; ; 4 7 v ).3X_ (.>X0.c.B.B.B.n.B.Z.y.i 4X4X4X4X4X4X4X",
"4X4X4X4X4X4X4X7 / W F.3X_ (.>X0.c.B.B.B.B.B.U.y.i 4X4X4X4X4X4X4X",
"4X4X4X4X4X4X4X9 E.R ` P.*.G.K.0.n.B.B.I.U.U.Y.d.i 4X4X4X4X4X4X4X",
"4X4X4X4X4X4X4X7 ~ q d @.<.&.@.<.d.B.a.O.O.O.+.T r 4X4X4X4X4X4X4X",
"4X4X4X4X4X4X4X; ; 3 V <.2.0.2.0.2.a...; ; ; ; ; ; 4X4X4X4X4X4X4X",
"4X4X4X4X4X4X4X; & S -.5.l.n.n.n.n.F r 4X4X4X4X4X4X4X4X4X4X4X4X4X",
"4X4X4X4X4X4X4X4X; n D.Q.{. X|. X}.] X 4X4X4X4X4X4X4X4X4X4X4X4X4X",
"4X4X4X4X4X4X4X4X# D J.[.&X:X:X:X;X{   4X4X4X4X4X4X4X4X4X4X4X4X4X",
"4X4X4X4X4X* 1 u i | H.].@X=X$X=X$X{   4X4X4X4X4X4X4X4X4X4X4X4X4X",
"4X4X4X4X4X+ z y.w.>.D.].+X$X#X$X#X{   4X4X4X4X4X4X4X4X4X4X4X4X4X",
"4X4X4X4X4X* u H r.r.V.J.R..XOXXX!.! + 4X4X4X4X4X4X4X4X4X4X4X4X4X",
"4X4X4X4X4X4X# 1 S $.2.w.c.T.~.W.A.c + 4X4X4X4X4X4X4X4X4X4X4X4X4X",
"4X4X4X4X4X4X4X; ; J h.c.d.y.h.n.n.B + 4X4X4X4X4X4X4X4X4X4X4X4X4X",
"4X4X4X4X4X4X4X4X; H h.y.f t V y.c.B + 4X4X4X4X4X4X4X4X4X4X4X4X4X",
"4X4X4X4X4X4X4X4X; T #.B 4XO j ;.Z s 4X4X4X4X4X4X4X4X4X4X4X4X4X4X",
"4X4X4X4X4X4X4X4X; x B + 4X* s F 3 4X4X4X4X4X4X4X4X4X4X4X4X4X4X4X",
"4X4X4X4X4X4X4X4X; ; ; 4X4X; * ; 4X4X4X4X4X4X4X4X4X4X4X4X4X4X4X4X",
"4X4X4X4X4X4X4X4X4X4X4X4X4X4X4X4X4X4X4X4X4X4X4X4X4X4X4X4X4X4X4X4X",
"4X4X4X4X4X4X4X4X4X4X4X4X4X4X4X4X4X4X4X4X4X4X4X4X4X4X4X4X4X4X4X4X",
"4X4X4X4X4X4X4X4X4X4X4X4X4X4X4X4X4X4X4X4X4X4X4X4X4X4X4X4X4X4X4X4X",
"4X4X4X4X4X4X4X4X4X4X4X4X4X4X4X4X4X4X4X4X4X4X4X4X4X4X4X4X4X4X4X4X"
};
